<?xml version="1.0" encoding="UTF-8"?><svg xmlns="http://www.w3.org/2000/svg" viewBox="0 0 70 70"><defs><style>.d{fill:#00aed4;}.e{fill:#00afd5;}.f{fill:#57c2e9;}.g{fill:#57c3ea;}</style></defs><g id="a"/><g id="b"/><g id="c"><rect class="e" x="32.06" y="47.67" width="20.91" height="11.33"/><rect class="e" x="27.94" y="57.76" width="29.14" height="4.8" rx="1.08" ry="1.08"/><g><path class="d" d="M51.93,35.06c-.19-.12-.48-.3-.58-.36-1.55-.98-3.04-2.1-4.45-3.35-.51-.45-2.13-2.02-2.45-2.41-.17-.22-.3-.48-.3-.77,0-.25,.08-.49,.22-.68l-.39,.41c-.81,.89-1.31,2.07-1.31,3.37,0,1.85,1,3.47,2.5,4.34,.14,.08,.29,.08,.45,.08h6.13c.34,0,.46-.45,.18-.62Z"/><path class="d" d="M43.58,20.99c-1.7-.02-3.23,.69-4.3,1.84h0c-2.94,3.41-4.97,7.62-5.67,12.27-.05,.3,.19,.58,.5,.58h3.64c.24,0,.45-.17,.49-.41,.58-2.97,1.46-4.96,2.47-6.62,1.12-1.85,1.96-2.71,1.96-2.71,.02-.02,.17-.16,.18-.17,.07-.06,.14-.12,.21-.17l.02-.02c.08-.06,.16-.11,.24-.16h0c.08-.05,.17-.1,.25-.14h.03c.08-.05,.17-.09,.25-.12l.04-.02c.08-.03,.17-.06,.26-.09h.05c.09-.04,.18-.06,.27-.08h.04c.09-.02,.19-.04,.28-.05h.03c.1-.01,.2-.02,.31-.02h0c1.8,0,3.27,1.37,3.44,3.13,0,.01,.01,.13,.01,.17,0,.03,0,.13,0,.16v.09c-.02,.65-.19,1.26-.54,1.76-.03,.04-.06,.08-.09,.13l-.02,.02c.83-1.01,1.33-2.31,1.3-3.73-.05-3.09-2.57-5.61-5.66-5.65Z"/><path class="f" d="M43.61,25.59c.54,.05,.97,.48,1.03,1.02,.03,.29-.05,.57-.2,.79l-.07,.09h0c-.14,.19-.22,.43-.22,.68,0,.3,.13,.56,.3,.77,.31,.39,1.94,1.96,2.45,2.41,.6-.36,.98-.87,1.15-1.12,.36-.52,.54-1.17,.54-1.85,0-1.91-1.55-3.46-3.46-3.46-.88,0-1.69,.33-2.3,.87l-.1,.09c.23-.2,.54-.32,.88-.28Z"/></g><path class="e" d="M25.37,18.65H7.74v-2.28L.29,22.08c-.39,.3-.39,.89,0,1.19l7.44,5.71v-2.41H25.37v-7.93Z"/><path class="e" d="M2.05,38.18H19.68v2.28l7.44-5.71c.39-.3,.39-.89,0-1.19l-7.44-5.71v2.41H2.05v7.93Z"/><path class="g" d="M64.43,9.76H19.46c-3.06,0-5.55,2.48-5.55,5.55v.91h3.21v-.91c0-1.29,1.05-2.34,2.34-2.34h44.97c1.29,0,2.34,1.05,2.34,2.34v26.81c0,1.29-1.05,2.34-2.34,2.34H19.46c-1.29,0-2.34-1.05-2.34-2.34v-1.32h-3.21v1.32c0,3.06,2.48,5.55,5.55,5.55h44.97c3.06,0,5.55-2.48,5.55-5.55V15.3c0-3.06-2.48-5.55-5.55-5.55Z"/></g></svg>