<?xml version="1.0" encoding="utf-8"?>
<!-- Generator: Adobe Illustrator 27.0.0, SVG Export Plug-In . SVG Version: 6.00 Build 0)  -->
<svg version="1.1" id="レイヤー_1" xmlns="http://www.w3.org/2000/svg" xmlns:xlink="http://www.w3.org/1999/xlink" x="0px"
	 y="0px" viewBox="0 0 375 300" style="enable-background:new 0 0 375 300;" xml:space="preserve">
<style type="text/css">
	.st0{fill:url(#SVGID_1_);}
	.st1{fill:#46A9E9;}
	.st2{fill:#0B9B80;}
	.st3{fill:#6CC4B0;}
	.st4{fill:#17D9E7;}
	.st5{fill:#9FE2FF;}
	.st6{fill:#6CCE90;}
	.st7{fill:#697DD1;}
	.st8{fill:#9BD8D4;}
	.st9{fill:#9AF5FF;}
	.st10{fill:#00ABDC;}
	.st11{fill:#E0EEFB;}
	.st12{fill:#FFFFFF;}
	.st13{fill:#FFD4CC;}
	.st14{opacity:0.7;fill:#E0EEFB;enable-background:new    ;}
	.st15{fill:#FF7A5E;}
	.st16{fill:#ADD9D3;}
	.st17{opacity:0.5;fill:#E0EEFB;enable-background:new    ;}
	.st18{fill:none;stroke:#456253;stroke-width:0.56;stroke-miterlimit:10;}
	.st19{fill:none;stroke:#456253;stroke-width:0.56;stroke-miterlimit:10;stroke-dasharray:0,0,1.12,1.12;}
	.st20{fill:#0B60AB;}
	.st21{fill:#7C9FA8;}
	.st22{fill:#0B216C;}
	.st23{enable-background:new    ;}
	.st24{fill:#0B6CD2;}
</style>
<g>
	<g id="OBJECTS">
		
			<linearGradient id="SVGID_1_" gradientUnits="userSpaceOnUse" x1="290.42" y1="219.0329" x2="350.31" y2="219.0329" gradientTransform="matrix(1 0 0 -1 0 299.8898)">
			<stop  offset="0" style="stop-color:#E5F1F6"/>
			<stop  offset="1" style="stop-color:#E1F5EB"/>
		</linearGradient>
		<path class="st0" d="M290.4,87.2h59.9c0,0-2-6.2-13.6-4.9c-7.6-12.3-18.9-2.5-18.9-0.2C310.2,66.9,290.4,77.4,290.4,87.2
			L290.4,87.2z"/>
		<g>
			<g>
				<path class="st1" d="M167.2,199.2c-3.4-1-5.8,0.1-7.6,2.3l6.1,6.1L167.2,199.2z"/>
				<path class="st2" d="M159.2,249.9l4.6-1.4c0,0,2.7-6.2,5.3-14.3l-7.4,0.9L159.2,249.9L159.2,249.9z"/>
				<polygon class="st2" points="156.6,232.8 156.6,250.7 158.4,250.1 161,235 				"/>
				<path class="st1" d="M164,217.7l1.6-9.2l-6.4-6.4c-1.3,2-2.1,4.7-2.6,7.7v2.4L164,217.7L164,217.7z"/>
				<path class="st1" d="M161.9,234.4l7.5-1c0.8-2.4,1.5-5,2.1-7.6l-8.3,1.1L161.9,234.4L161.9,234.4z"/>
				<polygon class="st1" points="163.9,218.5 156.6,213 156.6,222.7 162.6,226.1 				"/>
				<path class="st1" d="M172.8,205.2c-0.8-2.8-2.4-4.9-4.9-5.8l-1.4,8.4L172.8,205.2L172.8,205.2z"/>
				<path class="st1" d="M164.7,217.9l8.5-1.8c0.4-3.8,0.4-7.3-0.3-10.2l-6.6,2.7L164.7,217.9L164.7,217.9z"/>
				<polygon class="st2" points="150.1,242.5 155.9,237.3 155.9,226.8 147.9,233.7 				"/>
				<path class="st1" d="M163.3,226.2l8.4-1.1c0.7-2.8,1.2-5.6,1.5-8.2l-8.6,1.8L163.3,226.2z"/>
				<polygon class="st1" points="162.5,226.8 156.6,223.6 156.6,232.1 161.2,234.3 				"/>
				<path class="st2" d="M145.1,225.2l-16.6-1c0.7,3.3,1.6,6.5,2.6,9.7l15.9-0.6L145.1,225.2L145.1,225.2z"/>
				<path class="st2" d="M142.5,214.4l-15.6-2.1c0.2,3.6,0.7,7.4,1.5,11.2l16.6,1L142.5,214.4L142.5,214.4z"/>
				<path class="st1" d="M136.2,188.3c-4.4,1.1-7.2,5.2-8.5,11l11.9,3.3L136.2,188.3L136.2,188.3z"/>
				<path class="st1" d="M143,213.3l11.2-11.6c-1-2.8-2.2-5.3-3.8-7.4l-9.8,9L143,213.3L143,213.3z"/>
				<path class="st2" d="M147.2,233.9l-15.9,0.6c1.1,3.1,2.3,6,3.6,8.8l14.4-0.6L147.2,233.9L147.2,233.9z"/>
				<path class="st2" d="M135.3,244.1c2.1,4.2,4.5,7.9,7.2,10.9l9.2-2.8l-2.1-8.7L135.3,244.1L135.3,244.1z"/>
				<polygon class="st1" points="147.7,232.9 155.9,225.8 155.9,216.3 145.8,225 				"/>
				<path class="st1" d="M145.6,224.2l10.3-8.8v-6.9c-0.4-2.1-0.9-4.1-1.5-6l-11.2,11.7L145.6,224.2L145.6,224.2z"/>
				<polygon class="st2" points="150.2,243.3 152.4,252 155.9,250.9 155.9,238.3 				"/>
				<path class="st1" d="M149.9,193.7c-2.4-2.9-5.5-4.9-9.6-5.5c-1.2-0.2-2.4-0.1-3.5,0l3.5,14.3L149.9,193.7L149.9,193.7z"/>
				<path class="st1" d="M139.8,203.4l-12.3-3.4c-0.7,3.4-0.9,7.3-0.7,11.5l15.5,2.1L139.8,203.4L139.8,203.4z"/>
				<polygon class="st3" points="150,243.5 149.6,243.5 151.7,252.2 152.4,252 150.2,243.3 				"/>
				<path class="st3" d="M140,202.7l0.3-0.3l-3.5-14.3c-0.2,0-0.5,0.1-0.7,0.1l3.5,14.3L140,202.7z"/>
				<polygon class="st3" points="150.1,242.5 147.9,233.7 147.7,233.9 147.2,233.9 149.4,242.8 149.7,242.8 				"/>
				<polygon class="st3" points="147.7,232.9 145.8,225 145.5,225.2 145.1,225.2 147.1,233.2 147.4,233.2 				"/>
				<polygon class="st3" points="143,213.3 140.5,203.2 140.2,203.5 139.8,203.4 142.3,213.6 142.6,213.6 				"/>
				<polygon class="st3" points="145.6,224.2 143.2,214.1 142.9,214.4 142.5,214.4 144.9,224.4 145.3,224.5 				"/>
				<polygon class="st3" points="163.9,218.5 162.6,226.1 162.9,226.3 163.3,226.2 164.6,218.6 164.2,218.7 				"/>
				<polygon class="st3" points="162.5,226.8 161.2,234.3 161.5,234.4 161.9,234.4 163.2,226.9 162.8,227 				"/>
				<path class="st3" d="M166.1,207.9l0.4-0.1l1.4-8.4c-0.2-0.1-0.4-0.2-0.7-0.2c0,0,0,0,0,0l-1.5,8.4L166.1,207.9L166.1,207.9z"/>
				<polygon class="st3" points="161.4,235.2 161,235 158.4,250.1 159.2,249.9 161.8,235.1 				"/>
				<polygon class="st3" points="165.6,208.5 164,217.7 164.4,217.9 164.7,217.9 166.3,208.6 165.9,208.8 				"/>
				<path class="st3" d="M139.6,202.6l-11.9-3.3c-0.1,0.2-0.1,0.5-0.2,0.7l12.3,3.4L139.6,202.6L139.6,202.6z"/>
				<path class="st3" d="M140.5,203.2l9.8-9c-0.1-0.2-0.3-0.4-0.4-0.6l-9.6,8.8L140.5,203.2z"/>
				<polygon class="st3" points="140.5,203.2 140.3,202.4 140,202.7 139.6,202.6 139.8,203.4 140.2,203.5 				"/>
				<path class="st3" d="M142.3,213.6l-15.5-2.1c0,0.2,0,0.5,0,0.7l15.6,2.1L142.3,213.6L142.3,213.6z"/>
				<path class="st3" d="M143.2,214.1l11.2-11.7c-0.1-0.3-0.2-0.5-0.3-0.8L143,213.3L143.2,214.1z"/>
				<polygon class="st3" points="143.2,214.1 143,213.3 142.6,213.6 142.3,213.6 142.5,214.4 142.9,214.4 				"/>
				<polygon class="st3" points="145.8,225 155.9,216.3 155.9,215.4 145.6,224.2 				"/>
				<path class="st3" d="M144.9,224.4l-16.6-1c0.1,0.2,0.1,0.5,0.1,0.7l16.6,1L144.9,224.4L144.9,224.4z"/>
				<polygon class="st3" points="145.8,225 145.6,224.2 145.3,224.5 144.9,224.4 145.1,225.2 145.5,225.2 				"/>
				<path class="st3" d="M156.1,232.6l0.3-0.6l0.2,0.1v-8.5l-0.5-0.3l0.4-0.6l0.2,0.1V213l-0.6-0.4l0.4-0.6l0.1,0.1v-2.4
					c-0.1,0.5-0.2,1-0.2,1.5c-0.1-0.9-0.3-1.9-0.5-2.9v6.9l0.1-0.1l0.5,0.5l-0.6,0.5v9.5l0.1-0.1l0.5,0.5l-0.6,0.5v10.6l0.1-0.1
					l0.5,0.5l-0.6,0.5v12.6l0.7-0.2v-17.9L156.1,232.6L156.1,232.6z"/>
				<polygon class="st3" points="156.5,215.8 156,215.3 155.9,215.4 155.9,216.3 				"/>
				<path class="st3" d="M166.5,207.8l-0.1,0.8l6.6-2.7c-0.1-0.2-0.1-0.5-0.2-0.7L166.5,207.8L166.5,207.8z"/>
				<path class="st3" d="M165.8,207.6l-6.1-6.1c-0.1,0.2-0.3,0.4-0.4,0.6l6.4,6.4L165.8,207.6z"/>
				<polygon class="st3" points="165.8,207.6 165.6,208.5 165.9,208.8 166.3,208.6 166.5,207.8 166.1,207.9 				"/>
				<path class="st3" d="M164.6,218.6l8.6-1.8c0-0.2,0.1-0.5,0.1-0.8l-8.5,1.8L164.6,218.6z"/>
				<polygon class="st3" points="164,217.7 156.6,212.1 156.6,213 163.9,218.5 				"/>
				<polygon class="st3" points="164,217.7 163.9,218.5 164.2,218.7 164.6,218.6 164.7,217.9 164.4,217.9 				"/>
				<polygon class="st3" points="156.5,212 156.1,212.6 156.6,213 156.6,212.1 				"/>
				<polygon class="st3" points="162.6,226.1 156.6,222.7 156.6,223.6 162.5,226.8 				"/>
				<path class="st3" d="M163.2,226.9l8.3-1.1c0.1-0.2,0.1-0.5,0.2-0.7l-8.4,1.1L163.2,226.9L163.2,226.9z"/>
				<polygon class="st3" points="162.6,226.1 162.5,226.8 162.8,227 163.2,226.9 163.3,226.2 162.9,226.3 				"/>
				<polygon class="st3" points="156.4,222.6 156.1,223.3 156.6,223.6 156.6,222.7 				"/>
				<path class="st3" d="M161.8,235.1l7.4-0.9c0.1-0.2,0.2-0.5,0.2-0.8l-7.5,1L161.8,235.1L161.8,235.1z"/>
				<polygon class="st3" points="156.6,232.1 156.6,232.8 161,235 161.2,234.3 				"/>
				<polygon class="st3" points="161.2,234.3 161,235 161.4,235.2 161.8,235.1 161.9,234.4 161.5,234.4 				"/>
				<polygon class="st3" points="156.4,231.9 156.1,232.6 156.6,232.8 156.6,232.1 				"/>
				<path class="st3" d="M147.1,233.2l-15.9,0.6c0.1,0.2,0.1,0.5,0.2,0.7l15.9-0.6L147.1,233.2L147.1,233.2z"/>
				<polygon class="st3" points="147.9,233.7 155.9,226.8 155.9,225.8 147.7,232.9 				"/>
				<polygon class="st3" points="147.9,233.7 147.7,232.9 147.4,233.2 147.1,233.2 147.2,233.9 147.7,233.9 				"/>
				<polygon class="st3" points="156.5,226.3 156,225.7 155.9,225.8 155.9,226.8 				"/>
				<polygon class="st3" points="150.2,243.3 155.9,238.3 155.9,237.3 150.1,242.5 				"/>
				<path class="st3" d="M149.4,242.8l-14.4,0.6c0.1,0.2,0.2,0.5,0.3,0.7l14.3-0.6L149.4,242.8L149.4,242.8z"/>
				<polygon class="st3" points="149.7,242.8 149.4,242.8 149.6,243.5 150,243.5 150.2,243.3 150.1,242.5 				"/>
				<polygon class="st3" points="156.5,237.8 156,237.2 155.9,237.3 155.9,238.3 				"/>
			</g>
			<path class="st4" d="M204.4,268.8c0,0-5-33.9-35.4-39.1s-26.7-48.1-68.1-46.4C59.4,185,68,224.9,51.5,233.9
				c-16.5,9-24.2,34.9-24.2,34.9H204.4z"/>
			<g>
				<path class="st5" d="M39.8,268.9l1.2,0l-22.3-63.9C11.8,207.3,39.8,268.9,39.8,268.9L39.8,268.9z"/>
				<path class="st5" d="M47.9,269l21.3-48.6c-5.5-0.2-12.6,18.8-16,28.6c-1.1,3.6-1.8,5.8-1.8,5.8s0.7-2.3,1.8-5.8
					c4.5-14.2,15-50.1,8.7-53.6L45.3,269L47.9,269L47.9,269z"/>
				<path class="st5" d="M42.7,269l-1.9-86.8c-7.7,4.1-1,75.3-1,75.3S26.7,206.4,19.4,205l22.3,63.9L42.7,269L42.7,269z"/>
				<path class="st6" d="M53.2,249.1c-1.2,3.4-1.8,5.8-1.8,5.8S52.1,252.6,53.2,249.1z"/>
				<path class="st5" d="M44.6,269l16.6-73.7c-8.7-1.2-16.7,62.2-16.7,62.2s5.8-75.5-3-75.5c0,0,0,0,0,0l1.9,87L44.6,269L44.6,269z"
					/>
				<path class="st5" d="M51,269.1c0,0,26.5-45.2,19-48.4c-0.1,0-0.1,0-0.2-0.1L48.6,269L51,269.1z"/>
				<path class="st7" d="M41.8,269L19.4,205c-0.2,0-0.5,0-0.7,0c0,0,0,0,0,0L41,268.9L41.8,269L41.8,269z"/>
				<path class="st7" d="M43.4,269l-1.9-87c-0.2,0-0.5,0.1-0.7,0.2l1.9,86.8L43.4,269L43.4,269z"/>
				<path class="st7" d="M45.3,269l16.6-73.5c-0.1-0.1-0.2-0.1-0.4-0.2c-0.1,0-0.2,0-0.3-0.1L44.5,269L45.3,269L45.3,269z"/>
				<path class="st7" d="M48.6,269l21.2-48.4c-0.2-0.1-0.5-0.1-0.7-0.1L47.9,269L48.6,269L48.6,269z"/>
			</g>
			<g>
				<path class="st1" d="M66.1,195.9l17.2,72.4h1.4l4.2-21.3C89.1,238.5,87.7,213.6,66.1,195.9z"/>
				<path class="st1" d="M65.8,268.5l7.6-0.1l-31.5-35.6C49.7,260.9,65.8,268.5,65.8,268.5L65.8,268.5z"/>
				<path class="st1" d="M42,231.9l32.3,36.4l2,0l-10-20.5C62.6,242.2,54.7,232.9,42,231.9L42,231.9z"/>
				<path class="st1" d="M66.5,246.6l10.6,21.7l5.4,0l-17.1-71.9C57.6,216.2,63,236.8,66.5,246.6L66.5,246.6z"/>
				<path class="st1" d="M97.2,268.2c0,0,24.3-9.4,24.7-46.4l-32.1,46.4L97.2,268.2L97.2,268.2z"/>
				<path class="st1" d="M89.4,247.6l-4.1,20.7l3.6,0l32.7-47.3C98.6,230.6,91.5,242.6,89.4,247.6L89.4,247.6z"/>
				<path class="st8" d="M41.6,231.9c0.1,0.3,0.2,0.6,0.3,0.9l31.5,35.6h0.9L42,231.9C41.8,231.9,41.7,231.9,41.6,231.9L41.6,231.9z
					"/>
				<path class="st8" d="M65.8,195.6c-0.1,0.3-0.2,0.5-0.3,0.8l17.1,71.9h0.7l-17.2-72.4C66,195.8,65.9,195.7,65.8,195.6z"/>
				<path class="st8" d="M121.7,220.9L89,268.3h0.9l32.1-46.5c0-0.3,0-0.7,0-1C121.9,220.9,121.8,220.9,121.7,220.9L121.7,220.9z"/>
				<path class="st3" d="M68.7,251.9c0.2,0.3,0.2,0.5,0.2,0.5S68.8,252.3,68.7,251.9z"/>
				<path class="st3" d="M68.7,251.9c0.2,0.3,0.2,0.5,0.2,0.5S68.8,252.3,68.7,251.9c-0.4-0.7-1.1-2.2-2.3-4l10,20.5h0.8l-10.6-21.8
					C67.4,249.2,68.3,251.1,68.7,251.9L68.7,251.9z"/>
				<path class="st3" d="M88.7,250.1c0,0,0.1-1.1,0.2-3.1l-4.2,21.3h0.7l4.1-20.7C88.8,249.2,88.7,250.1,88.7,250.1L88.7,250.1z"/>
			</g>
			<g>
				<path class="st1" d="M297.4,252.8l3.8,16.7h1.9l11-74.8C294.8,214.1,295.7,240.6,297.4,252.8z"/>
				<path class="st1" d="M271.4,218.5l28.2,50.9h0.9l-4.2-18.4C292.9,241.5,285.6,226.1,271.4,218.5L271.4,218.5z"/>
				<path class="st1" d="M294.5,269.4h4.2l-28-50.5C271.1,258,294.5,269.4,294.5,269.4L294.5,269.4z"/>
				<path class="st1" d="M316.6,269.4c0,0,19.2-9,28-38.8l-31.1,38.8H316.6L316.6,269.4z"/>
				<path class="st1" d="M317,253.8l-5.8,15.6h1.3l31.9-39.7C329.2,234.5,320.9,246.3,317,253.8L317,253.8z"/>
				<path class="st1" d="M314.6,195.5l-10.9,74h6.7l5.8-15.6C319.5,242.3,324.4,217.4,314.6,195.5L314.6,195.5z"/>
				<path class="st3" d="M270.8,218.2c0,0.2,0,0.5,0,0.7l28,50.5h0.8l-28.2-50.9C271.2,218.4,271,218.3,270.8,218.2L270.8,218.2z"/>
				<path class="st3" d="M314.2,194.5c0,0.1-0.1,0.1-0.1,0.2l-11,74.8h0.7l10.9-74C314.5,195.1,314.3,194.8,314.2,194.5L314.2,194.5
					z"/>
				<path class="st3" d="M344.4,229.7l-31.9,39.7h0.9l31.1-38.8c0.1-0.4,0.2-0.7,0.3-1.1C344.7,229.6,344.6,229.7,344.4,229.7
					L344.4,229.7z"/>
				<path class="st3" d="M298.2,257.5c0.3,1.1,0.4,1.8,0.4,1.8S298.4,258.6,298.2,257.5c-0.4-1.5-1-3.7-1.9-6.5l4.2,18.4h0.7
					l-3.8-16.7C297.7,254.8,298,256.4,298.2,257.5L298.2,257.5z"/>
				<path class="st3" d="M298.2,257.5c0.2,1.1,0.4,1.8,0.4,1.8S298.5,258.6,298.2,257.5z"/>
				<path class="st3" d="M314.6,259c-0.3,0.8-0.5,1.2-0.5,1.2S314.3,259.8,314.6,259c0.4-1.1,1-2.9,1.6-5.2l-5.8,15.6h0.8l5.8-15.6
					C315.8,256.1,315.1,257.9,314.6,259L314.6,259z"/>
				<path class="st3" d="M314.6,259c-0.3,0.8-0.5,1.2-0.5,1.2S314.4,259.8,314.6,259z"/>
			</g>
			<path class="st9" d="M188.9,248.5c-120.3,0-171,19.9-171,19.9s50.7,8.4,171,8.4s171-8.4,171-8.4S309.2,248.5,188.9,248.5z"/>
			<g>
				<polygon class="st10" points="234.1,161.5 227.5,263.7 234.1,263.7 251.3,178.1 261.4,263.7 267.6,263.7 267.9,161.5 				"/>
				<g>
					<polygon class="st11" points="195.9,131.2 195.8,131.9 191.5,167.9 275.5,167.9 267.5,132.4 254.1,88.8 223.2,94.4 222.6,94.5 
						221.9,94.3 181,85.8 195.7,130.5 					"/>
					<path class="st12" d="M279.7,171.3l-9-39.7L256.4,85l-33.8,6.1l-46.5-9.8l16.4,50.2l-4.8,39.7L279.7,171.3L279.7,171.3z
						 M221.9,94.3l0.6,0.1l0.6-0.1l30.9-5.6l13.3,43.6l8.1,35.5h-84l4.4-36l0.1-0.7l-0.2-0.7L181,85.7L221.9,94.3L221.9,94.3z"/>
				</g>
				<path class="st13" d="M252.6,114.4h-2.7c-2.1,0-3.9-1.8-3.9-3.9v-10.1h10.5v10.1C256.5,112.6,254.7,114.4,252.6,114.4
					L252.6,114.4z"/>
				<polygon class="st14" points="269.3,127.1 229.1,129.5 192.5,131.6 187.7,171.3 279.7,171.3 				"/>
				<g>
					<g>
						<g>
							<path class="st12" d="M219.9,100.7c-1,0-2,0.9-3.1,2.1h6.1C222,101.6,220.9,100.7,219.9,100.7z"/>
							<path class="st6" d="M227.1,109.9c0,0-1.9-4.4-4.1-7.1h-6.1c-2.2,2.7-4.1,7.1-4.1,7.1H227.1z"/>
						</g>
						<g>
							<path class="st12" d="M212.4,103.7c-0.6,0-1.4,0.6-2,1.4h4.1C213.8,104.3,213,103.7,212.4,103.7L212.4,103.7z"/>
							<path class="st6" d="M217.2,109.9c0,0-1.3-2.9-2.8-4.8h-4.1c-1.5,1.8-2.8,4.8-2.8,4.8H217.2z"/>
						</g>
						<g>
							<path class="st12" d="M227.5,103.7c-0.6,0-1.4,0.6-2,1.4h4.1C228.9,104.3,228.2,103.7,227.5,103.7L227.5,103.7z"/>
							<path class="st6" d="M232.4,109.9c0,0-1.3-2.9-2.8-4.8h-4.1c-1.5,1.8-2.8,4.8-2.8,4.8H232.4z"/>
						</g>
					</g>
					<path class="st15" d="M228.9,114.9c-2.8,1.4-5,3.7-6.6,6.8c-17.4-10.8-31.6-8.6-32.2-8.5l0.6,2c0.1,0,14-2.5,30.9,8.1
						c-0.4,1-0.9,2.2-1.2,3.4c-4.2,14.4-25.6,16.3-25.8,16.3l-0.2,1.7c0.8-0.1,15.5-1.3,23.4-10.1c2.9,2.2,14.5,12.7,7.2,33.4h1.8
						c7.4-21.3-4.7-32.2-8-34.7c1.4-1.8,2.5-3.8,3.1-6.2c1.6-5.3,4.1-8.8,7.8-10.7c5.2-2.7,12.7-2.1,23.7,1.7l0.6-1.6
						C242.5,112.5,234.5,112,228.9,114.9L228.9,114.9z"/>
					<path class="st16" d="M193.1,154.4c0,0,6.8-6.9,14.2-2.1s9.1,1.4,12.4,4.7c4.4,4.4,0.3,10.9,0.3,10.9h-28.5L193.1,154.4
						L193.1,154.4z"/>
				</g>
				<polygon class="st17" points="222.6,91.1 229.6,132.1 234.1,171.3 187.7,171.3 192.5,131.6 176.1,81.3 				"/>
				<path class="st13" d="M254.9,120.8l10.5,21.5c0.7,1.4,2,2.5,3.6,2.9l0,0c3.5,0.8,6.9-2.1,6.5-5.6c-1.2-10.9-10.7-25.6-10.7-25.6
					L254.9,120.8L254.9,120.8z"/>
				<g>
					<path class="st18" d="M233.3,160.5c0,0,0-0.2-0.1-0.6"/>
					<path class="st19" d="M233,158.9c-0.9-3.2-4.2-10.1-15.8-11.1c-9.8-0.9-14.6-8.2-6.9-19.6c7.5-11,10.2-8.9,10.4-18.1"/>
					<path class="st18" d="M220.7,109.5c0-0.2,0-0.4,0-0.6"/>
				</g>
				<path class="st15" d="M218.2,110.6c0,1.3,1.1,2.4,2.4,2.4s2.4-1.1,2.4-2.4s-1.1-2.4-2.4-2.4S218.2,109.2,218.2,110.6z"/>
				<path class="st13" d="M247.1,80c0,0-7.8,1.5-7.8,14s6.9,12.2,11.7,9.1s7.2-10.9,3.8-18.1C251.5,77.8,247.1,80,247.1,80L247.1,80
					z"/>
				<path class="st6" d="M250.5,107.4c0,0-11.8-0.8-13.9,12.4c-1.7,10.8,1.9,15.1,1.6,24.2c-0.1,4.3-4.1,12.3-4.1,17.5h33.9
					c0,0-1-5.4-3.7-17.5c-0.7-3.1,0.9-6.9,2.2-11.1C272.4,113,259.8,107.4,250.5,107.4L250.5,107.4z"/>
				<path class="st10" d="M246.7,92.3c0,0-8.1,0.8-8.9-8.8c-0.9-9.5,11.5-12.4,19.2-4.8c2.1-7.2,13-5.3,11,4.6
					c4.5,6.5-0.3,8.3-2.8,8.3c0,10.2-6.6,13.9-12.2,12.1C247.3,102,246.7,92.3,246.7,92.3L246.7,92.3z"/>
				<path class="st13" d="M237.1,116.9l-11.7,19.8l-25.7-3.8l-0.7,3.8c0,0,14.8,9.4,29.1,7.9c8.1-0.9,15.5-15.3,18.8-22.6
					c1.1-2.4,0.3-5.3-1.9-6.8l0,0C242.3,113.4,238.7,114.1,237.1,116.9L237.1,116.9z"/>
				<path class="st13" d="M246.7,92.3c0,0,2.8-0.3,2.8,2.6s-3.6,3.2-3.6,3.2L246.7,92.3z"/>
				<path class="st20" d="M234.7,157c0,0-6.4,12.8-6.4,33.6c8.9,4.2,21.1,3.1,21.1,3.1l1.7-11.1l0.9,11.2c0,0,11.1,2.6,20.7-2.9
					c0.6-21.2-5.8-34-5.8-34S255,161.2,234.7,157L234.7,157z"/>
				<path class="st20" d="M226.4,264.9v-14.2H239l-2.5,17.7h-18.8C217.7,268.4,219.6,264.9,226.4,264.9z"/>
				<path class="st20" d="M271,264.9v-14.2h-12.7l2.5,17.7h18.8C279.7,268.4,277.8,264.9,271,264.9L271,264.9z"/>
				<g>
					<path class="st21" d="M252.9,111.9c0,0-10.1,17.7-10.1,37.3s40.7,19.3,40.7,0s-7.8-37.3-7.8-37.3L252.9,111.9L252.9,111.9z"/>
					<path class="st22" d="M249.4,119.6H276c3.8,0,6.9-3.1,6.9-6.9l0,0c0-3.8-3.1-6.9-6.9-6.9h-26.3c-3.2,0-5.9,2.7-5.9,5.9v2.4
						C243.8,117.1,246.3,119.6,249.4,119.6L249.4,119.6z"/>
					<path class="st22" d="M243.8,137.8c0,0-9,18.8,4.2,18.8s7.2-18.8,7.2-18.8H243.8z"/>
					<path class="st22" d="M263.3,137.8c0,0-8.1,18.8,6.3,18.8c14.4,0,17-0.6,17-9.2s-3.7-9.6-3.7-9.6H263.3z"/>
					<path class="st22" d="M243.4,112.7c0,3.8,2.3,6.8,5.1,6.8s5.1-3,5.1-6.8s-2.3-6.8-5.1-6.8S243.4,108.9,243.4,112.7z"/>
					<path class="st21" d="M256.6,105.8c0,0,6.3,7.5,0,13.9h3.2c0,0,6.6-7-0.2-13.9"/>
					<path class="st21" d="M271.8,105.8c0,0,6.3,7.5,0,13.9h3.2c0,0,6.6-7-0.2-13.9"/>
				</g>
				<path class="st13" d="M200.8,133.4c0,0-3.7-4.7-4.6-4.4c-0.9,0.3,0.9,2.6,0.9,2.6s-5.2-0.8-5.9-0.8s-0.2,1.4,1,1.7
					c-1.1,1.1,0.3,3.8,4,4.1c3.8,0.3,4.9-0.3,4.9-0.3L200.8,133.4L200.8,133.4z"/>
			</g>
		</g>
		<g class="st23">
			<path class="st10" d="M29.8,112.5l20.8-46.1h9.9l-21,46.1h16.3V94h8.9v18.5h5v8.6h-5v9.6h-8.9v-9.6l-26,0V112.5z"/>
			<path class="st10" d="M75.3,84.4c0.1-5.9,1.9-10.5,5.5-13.7c3.4-3.2,7.4-4.8,12.1-4.8c4.8,0,9,1.6,12.4,4.8
				c3.4,3.2,5.2,7.8,5.3,13.7v28.3c-0.1,5.9-1.9,10.5-5.3,13.7c-3.4,3.2-7.5,4.8-12.4,4.8c-4.7-0.1-8.7-1.7-12.1-4.8
				c-3.6-3.2-5.5-7.7-5.5-13.6V84.4z M101.8,84.9c-0.2-6.4-3.1-9.7-8.8-9.9c-5.7,0.1-8.6,3.4-8.8,9.9v27.3c0.1,6.5,3,9.8,8.8,9.9
				c5.7-0.1,8.6-3.3,8.8-9.9V84.9z"/>
			<path class="st10" d="M116.4,112.5l20.8-46.1h9.9l-21,46.1h16.3V94h8.9v18.5h5v8.6h-5v9.6h-8.9v-9.6l-26,0V112.5z"/>
		</g>
		<g class="st23">
			<path class="st24" d="M38.6,30.1c-0.9,0.1-1.8,0.1-3,0.1c-0.3,0-0.4-0.1-0.4-0.4c-0.1-0.3-0.1-0.9-0.2-1.6
				c0.5,0.1,0.9,0.1,1.4,0.1c0.8,0,1.5-0.1,2.3-0.1c0-0.6,0-1.3,0-2.1c0-0.5,0-1-0.1-1.5c0.9,0.1,1.7,0.2,2.2,0.3
				c0.2,0.1,0.4,0.2,0.4,0.3c0,0.1,0,0.2-0.1,0.3c-0.1,0.2-0.2,0.5-0.3,0.7c-0.1,0.5-0.1,0.9-0.1,1.5c0.8-0.2,1.5-0.4,2.3-0.7
				c0.2-0.1,0.3,0,0.3,0.2c0.1,0.5,0.1,0.9,0.1,1.4c0,0.2-0.1,0.2-0.2,0.3c-1.2,0.4-1.5,0.5-2.6,0.7c0,0.9,0,1.8,0,2.6
				c1.7-0.7,3.3-1,4.5-1c2.2,0,3.9,1.5,3.9,3.6c0,2.3-1.5,3.7-3.9,3.7c-0.5,0-1.1-0.1-1.5-0.2C43.1,38.5,43,38.3,43,38
				c0-0.4-0.2-1-0.5-1.5c0.9,0.3,1.6,0.3,2.3,0.3c1,0,2-0.6,2-1.9c0-1.2-0.7-1.8-2-1.8c-1,0-2.3,0.3-4.2,1.2c0,0.8,0,1.4,0.1,2.2
				c0.1,0.8,0.1,1.9,0.1,2.4c0,0.3,0,0.5-0.3,0.6c-0.4,0.1-1,0.2-1.3,0.2c-0.2,0-0.3-0.1-0.4-0.4c-0.5-0.7-1.4-1.5-2.6-2.3
				c-0.2,0.1-0.4,0.3-0.6,0.4c-0.1,0.1-0.2,0.1-0.3,0.1c-0.1,0-0.3-0.1-0.4-0.3c-0.2-0.3-0.6-1.1-0.8-1.7c0.5-0.1,1.1-0.3,1.7-0.6
				c0.8-0.4,1.6-0.9,3-1.7V30.1z M36.9,36.3c0.5,0.3,1.1,0.6,1.7,0.8c0.1,0,0.2,0,0.2-0.1c0-0.5-0.1-1.3-0.1-1.9
				C38.2,35.5,37.6,35.9,36.9,36.3z M45.6,26.8c0.1-0.2,0.2-0.3,0.3-0.2c1.7,0.5,2.9,1.3,3.8,2.2c0.1,0.1,0.1,0.1,0.1,0.2
				c0,0.1,0,0.1-0.1,0.2c-0.2,0.4-0.7,0.9-1,1.3c-0.1,0.1-0.3,0.1-0.4,0c-1-1.1-2.2-1.7-3.7-2.2C45,27.7,45.3,27.3,45.6,26.8z"/>
		</g>
		<g class="st23">
			<path class="st24" d="M59.9,34.2c-1.8,0-2.4,0-2.5,0c-0.2,0-0.2,0-0.2-0.2V33c-0.1,0.1-0.1,0.1-0.3,0.2c-0.4,0.2-0.8,0.3-1.2,0.5
				v0.8c0,1.7,0.1,2.7,0.1,3.6c0,1-0.2,1.5-0.6,1.8c-0.4,0.3-0.8,0.4-1.9,0.4c-0.6,0-0.6,0-0.7-0.5s-0.3-1-0.4-1.3
				c0.4,0.1,0.7,0.1,1.4,0.1c0.3,0,0.4-0.1,0.4-0.5v-3.7l-0.7,0.2c-0.3,0.1-0.5,0.2-0.6,0.3c-0.1,0.1-0.2,0.1-0.3,0.1
				s-0.2-0.1-0.2-0.2c-0.1-0.5-0.2-1.1-0.3-1.7c0.5-0.1,1.1-0.1,1.7-0.3l0.5-0.1V29h-0.3c-1.1,0-1.5,0-1.6,0C52,29,52,29,52,28.8
				v-1.3c0-0.2,0-0.2,0.2-0.2c0.1,0,0.4,0,1.6,0h0.3v-0.9c0-1.2,0-1.7-0.1-2.6c0.7,0,1.2,0.1,1.9,0.1c0.2,0,0.3,0.1,0.3,0.2
				c0,0.1-0.1,0.3-0.1,0.4c-0.1,0.2-0.1,0.6-0.1,1.8v0.9c0.7,0,0.9,0,1,0c0.2,0,0.2,0,0.2,0.2v1.3c0,0.2,0,0.2-0.2,0.2
				c-0.1,0-0.4,0-1,0v2.9c0.5-0.2,1.1-0.4,1.6-0.7c-0.1,0.3-0.1,0.9-0.1,1.3v0.1c0,0,0.1,0,0.1,0c0.1,0,0.7,0,2.5,0h1.8v-0.3
				c0-0.8,0-1.3-0.1-1.8c0.6,0,1.1,0.1,1.7,0.1c-0.1-0.2-0.2-0.5-0.2-0.9v-1.2c0-0.9,0-1.3-0.1-1.9c0.6,0,1.1,0,1.6,0.1
				c0.2,0,0.3,0.1,0.3,0.2c0,0.1-0.1,0.2-0.1,0.3c-0.1,0.1-0.1,0.3-0.1,1V29c0,0.3,0,0.4,0.1,0.5c0.1,0.1,0.3,0.1,0.8,0.1
				c0.4,0,0.8-0.1,0.9-0.2c0.2-0.2,0.3-0.5,0.3-1.1c0.3,0.2,0.8,0.3,1.1,0.4c0.5,0.1,0.5,0.1,0.4,0.6c-0.1,0.7-0.3,1.1-0.6,1.4
				c-0.4,0.3-1.1,0.5-2.1,0.5c-1,0-1.5-0.1-1.8-0.2c0,0.1-0.1,0.2-0.1,0.3c-0.1,0.2-0.1,0.4-0.1,0.9v0.5h2.2c1.7,0,2.4,0,2.5,0
				c0.2,0,0.2,0,0.2,0.2v1.2c0,0.2,0,0.2-0.2,0.2c-0.1,0-0.7,0-2.5,0h-1.5c1.2,1.5,2.6,2.5,4.7,3.3c-0.4,0.4-0.7,0.8-0.9,1.3
				c-0.1,0.3-0.2,0.4-0.4,0.4c-0.1,0-0.2-0.1-0.4-0.2c-1.7-1-2.8-2.1-3.7-3.6c0,2.1,0.1,4.1,0.1,4.6c0,0.2,0,0.2-0.2,0.2h-1.4
				c-0.2,0-0.2,0-0.2-0.2c0-0.5,0.1-2.5,0.1-4.7c-0.9,1.5-2.3,2.6-3.9,3.6c-0.2,0.1-0.3,0.2-0.4,0.2c-0.1,0-0.2-0.1-0.4-0.4
				c-0.3-0.5-0.5-0.8-0.8-1.1c1.7-0.7,3.4-2,4.5-3.5H59.9z M65.5,24.5c1.8,0,2.4,0,2.5,0c0.2,0,0.2,0,0.2,0.2c0,0.1,0,0.4,0,0.7V26
				c0,1.3,0,1.6,0,1.7c0,0.2,0,0.2-0.2,0.2h-1.3c-0.2,0-0.2,0-0.2-0.2V26h-7.3v1.6c0,0.2,0,0.2-0.2,0.2h-1.3c-0.2,0-0.2,0-0.2-0.2
				c0-0.1,0-0.3,0-1.7v-0.5c0-0.5,0-0.8,0-0.9c0-0.2,0-0.2,0.2-0.2c0.1,0,0.7,0,2.5,0H65.5z M62.1,26.9c0.1,0,0.3,0.1,0.3,0.2
				c0,0.1,0,0.2-0.1,0.3c-0.1,0.1-0.2,0.4-0.3,0.7c-0.4,1.5-1.3,2.6-2.7,3.4c-0.2,0.1-0.3,0.2-0.5,0.2c-0.1,0-0.2-0.1-0.4-0.3
				c-0.3-0.4-0.5-0.7-0.9-1c1.5-0.6,2.3-1.4,2.7-2.6c0.1-0.4,0.2-0.8,0.2-1.2C61.2,26.7,61.7,26.8,62.1,26.9z"/>
		</g>
		<g class="st23">
			<path class="st24" d="M72.4,24.9c0.3,0.1,0.4,0.2,0.4,0.3c0,0.2-0.1,0.4-0.2,0.6c-0.1,0.3-0.2,0.8-0.3,2.2
				c-0.2,2.8-0.3,4.6-0.3,7c0,1.8,0.2,2.2,1.7,2.2c1.6,0,4.1-1,6.4-3.3c0.1,0.7,0.2,1.3,0.4,1.7c0.1,0.2,0.1,0.3,0.1,0.4
				c0,0.2-0.1,0.3-0.4,0.6c-2,1.8-4.5,2.7-6.9,2.7c-2.3,0-3.4-0.9-3.4-3.7c0-3,0.2-5.7,0.3-7.8c0-1.1,0.1-2.2-0.2-3.3
				C71,24.7,71.8,24.8,72.4,24.9z"/>
		</g>
		<g class="st23">
			<path class="st24" d="M94,27.8c-0.4,3.1-1.2,5.9-2.3,7.8C91,37,90,37.7,88.7,37.7c-1.6,0-3.2-1.7-3.2-4.7c0-1.7,0.7-3.4,2.1-4.7
				c1.5-1.5,3.4-2.3,5.9-2.3c4.4,0,6.9,2.7,6.9,6.3c0,3.4-1.9,5.5-5.6,6.6c-0.4,0.1-0.5,0-0.8-0.3c-0.2-0.3-0.6-0.7-1.3-1.1
				c3.1-0.7,5.5-2,5.5-5.4C98.2,29.8,96.5,27.8,94,27.8L94,27.8z M88.8,29.5c-0.9,1-1.4,2.2-1.4,3.4c0,1.7,0.7,2.6,1.2,2.6
				c0.5,0,0.9-0.2,1.4-1.1c0.8-1.5,1.6-4.1,1.9-6.5C90.7,28.1,89.7,28.6,88.8,29.5z"/>
		</g>
		<g class="st23">
			<path class="st24" d="M104.7,31.7c0.9-0.9,1.8-1.8,2.6-2.7c0.7-0.8,1.1-1,1.6-1s0.9,0.1,1.6,0.7c2.3,2,5.1,4,8.1,5.9
				c0.2,0.1,0.3,0.3,0.2,0.5c-0.3,0.7-0.6,1.2-0.9,1.6c-0.1,0.1-0.2,0.2-0.3,0.2c-0.1,0-0.1,0-0.2-0.1c-2.9-2-5.4-4-8-6.3
				c-0.1-0.1-0.2-0.1-0.3-0.1c-0.1,0-0.2,0.1-0.3,0.1c-0.9,0.9-1.7,1.9-3,3.3c-0.5,0.5-0.6,0.8-0.7,0.9c-0.1,0.1-0.2,0.2-0.3,0.2
				c-0.1,0-0.2,0-0.3-0.1c-0.5-0.4-1-0.9-1.7-1.6C103.6,32.8,104,32.4,104.7,31.7z M117.5,27.5c0,1.1-0.9,1.9-2,1.9s-2-0.9-2-1.9
				c0-1.1,0.9-1.9,2-1.9S117.5,26.4,117.5,27.5z M114.5,27.5c0,0.6,0.5,1.1,1.1,1.1s1.1-0.5,1.1-1.1c0-0.6-0.5-1.1-1.1-1.1
				S114.5,26.9,114.5,27.5z"/>
		</g>
		<g class="st23">
			<path class="st24" d="M124.4,33.3c-1.8,0-2.5,0.2-2.7,0.2c-0.2,0-0.4-0.1-0.4-0.4c-0.1-0.4-0.2-1.3-0.3-2.2
				c1.2,0.2,2.1,0.2,3.9,0.2h5.8c1.4,0,2.8,0,4.2-0.1c0.3,0,0.3,0,0.3,0.3c0,0.5,0,1.2,0,1.7c0,0.2-0.1,0.3-0.3,0.3
				c-1.4,0-2.7,0-4,0H124.4z"/>
		</g>
		<g class="st23">
			<path class="st24" d="M139.2,29.6c0.1-0.1,0.2-0.2,0.3-0.2c1.4,0.5,2.4,1,3.5,1.8c0.1,0.1,0.2,0.2,0.2,0.3c0,0.1,0,0.1-0.1,0.2
				c-0.2,0.5-0.5,1-0.8,1.4c-0.1,0.1-0.2,0.2-0.2,0.2s-0.1,0-0.2-0.1c-1.2-0.9-2.3-1.5-3.7-2C138.7,30.5,139,29.9,139.2,29.6z
				 M142.2,36.4c1.7-0.9,3.2-1.8,5-3.1c1.5-1.1,3.4-2.8,5.2-5.1c0.1,0.8,0.3,1.3,0.5,2c0.1,0.1,0.1,0.2,0.1,0.3
				c0,0.1-0.1,0.3-0.2,0.4c-1.7,1.8-2.8,2.8-4.6,4.2c-1.6,1.2-3.3,2.2-5.4,3.4c-0.4,0.2-0.9,0.4-1.1,0.6c-0.1,0.1-0.2,0.1-0.3,0.1
				c-0.1,0-0.3-0.1-0.4-0.2c-0.4-0.4-0.9-1.1-1.3-1.9C140.5,37.1,141.1,36.9,142.2,36.4z M141.4,25.5c0.1-0.2,0.2-0.3,0.5-0.1
				c1.2,0.5,2.4,1.1,3.4,2c0.1,0.1,0.1,0.2,0.1,0.2c0,0.1,0,0.1-0.1,0.2c-0.3,0.5-0.6,1-0.9,1.4c-0.1,0.1-0.1,0.1-0.2,0.1
				c-0.1,0-0.2-0.1-0.3-0.1c-0.9-0.8-2.4-1.7-3.5-2.2C140.8,26.5,141.1,25.9,141.4,25.5z M149.7,24.9c0.1-0.1,0.2-0.1,0.3,0
				c0.6,0.4,1.2,1.2,1.7,1.9c0.1,0.1,0.1,0.2-0.1,0.3l-0.8,0.6c-0.1,0.1-0.2,0.1-0.3-0.1c-0.5-0.8-1.1-1.5-1.8-2.1L149.7,24.9z
				 M151.3,23.7c0.1-0.1,0.2-0.1,0.3,0c0.7,0.5,1.3,1.2,1.7,1.9c0.1,0.1,0.1,0.2-0.1,0.3l-0.7,0.6c-0.1,0.1-0.2,0.1-0.3-0.1
				c-0.5-0.8-1.1-1.5-1.8-2.1L151.3,23.7z"/>
		</g>
		<g class="st23">
			<path class="st24" d="M159.7,25.4c0.2,0.1,0.3,0.2,0.3,0.4c0,0.1-0.1,0.3-0.1,0.4c-0.1,0.2-0.2,0.5-0.3,1
				c-0.6,2.7-0.9,5.3-0.9,6.6c0,0.7,0,1.6,0.1,2.3c0.4-0.8,0.7-1.6,1.1-2.5c0.3,0.6,0.4,0.8,0.6,1.1c0.1,0.1,0.1,0.2,0.1,0.3
				s0,0.2-0.1,0.3c-0.6,1.4-0.9,2.2-0.9,2.8c-0.1,0.5,0,0.8,0,1c0,0.1-0.1,0.2-0.2,0.2c-0.3,0.1-0.9,0.2-1.4,0.3
				c-0.2,0.1-0.3,0-0.4-0.2c-0.5-1.3-0.8-3.4-0.8-5.5c0-1.7,0.1-3.2,0.7-6.9c0.1-0.6,0.2-1.4,0.1-2.1
				C158.3,24.9,159.3,25.2,159.7,25.4z M165.9,30.2c-1.2,0-2.5,0.1-3.7,0c-0.2,0-0.3-0.1-0.3-0.2c-0.1-0.4-0.1-1.1-0.1-1.7
				c1.4,0.1,2.8,0.1,4.1,0.1c0-0.7,0-1.2,0-1.9c0-0.7-0.1-1.1-0.2-1.8c1.1,0.1,1.6,0.2,2.2,0.3c0.2,0.1,0.3,0.1,0.3,0.3
				c0,0.1,0,0.1-0.1,0.3c-0.1,0.2-0.1,0.4-0.1,0.6c0,0.6,0,1.1,0,1.9c0.9-0.1,1.8-0.2,2.6-0.3c0.2-0.1,0.3,0,0.3,0.2
				c0.1,0.3,0.1,0.9,0.1,1.3c0,0.2-0.1,0.3-0.2,0.3c-0.7,0.2-1.9,0.3-2.8,0.4c0,2,0,3.3,0.1,4.9c1.1,0.4,2,0.9,3,1.7
				c0.2,0.1,0.2,0.2,0.1,0.4c-0.2,0.5-0.5,1-0.8,1.4c-0.1,0.1-0.1,0.1-0.2,0.1c-0.1,0-0.1,0-0.2-0.1c-0.6-0.5-1.2-1-2-1.5
				c-0.1,1.5-1.2,2.4-3.3,2.4c-2.1,0-3.2-1-3.2-2.5c0-1.5,1.3-2.6,3.2-2.6c0.5,0,1,0.1,1.5,0.1C165.9,33,165.9,31.7,165.9,30.2z
				 M164.4,35.9c-0.9,0-1.4,0.3-1.4,0.9s0.4,0.9,1.5,0.9c0.9,0,1.5-0.5,1.5-1.2c0-0.1,0-0.2,0-0.4C165.4,35.9,164.9,35.9,164.4,35.9
				z"/>
		</g>
		<g class="st23">
			<path class="st24" d="M184.8,37.5c0,0.4,0.1,0.5,0.3,0.6c0.2,0.1,0.7,0.1,1.4,0.1c0.7,0,1.3-0.1,1.6-0.2c0.3-0.2,0.4-0.7,0.5-1.9
				c0.4,0.2,0.9,0.5,1.3,0.6c0.5,0.2,0.5,0.2,0.4,0.6c-0.1,1.3-0.3,1.7-0.9,2.1c-0.5,0.4-1.6,0.5-3,0.5c-1.4,0-2.2-0.1-2.7-0.3
				c-0.4-0.2-0.7-0.5-0.7-1.3v-3.8h-1.6c-0.5,3.1-2.4,4.9-5.6,5.6c-0.2,0-0.3,0.1-0.4,0.1c-0.2,0-0.2-0.1-0.4-0.5
				c-0.2-0.5-0.5-0.9-0.9-1.2c3.2-0.4,4.9-1.7,5.3-4h0c-1.8,0-2.3,0-2.4,0c-0.2,0-0.2,0-0.2-0.2c0-0.1,0-0.8,0-2.2v-5.4
				c0-1.5,0-2.1,0-2.2c0-0.2,0-0.2,0.2-0.2c0.1,0,0.7,0,2.5,0h5.8c1.7,0,2.4,0,2.5,0c0.2,0,0.2,0,0.2,0.2c0,0.1,0,0.8,0,2.2v5.4
				c0,1.4,0,2.1,0,2.2c0,0.2,0,0.2-0.2,0.2c-0.1,0-0.7,0-2.5,0h-0.3V37.5z M178.5,26.1v1.3h7.4v-1.3H178.5z M185.9,30.2v-1.3h-7.4
				v1.3H185.9z M185.9,31.8h-7.4v1.3h7.4V31.8z"/>
		</g>
		<g class="st23">
			<path class="st24" d="M195.6,28.5c2.8-0.9,5.1-1.5,6.5-1.5c3.2,0,5.3,2,5.3,4.8c0,2.4-1,3.9-3.2,5c-1.5,0.9-2.9,1.1-4.6,1.5
				c-0.4,0.1-0.5,0.1-0.6-0.3c-0.2-0.5-0.7-1.1-1.3-1.4c2.4-0.4,3.7-0.7,4.9-1.3c1.5-0.8,2.5-1.9,2.5-3.6c0-1.7-1.1-2.8-3.1-2.8
				c-1.6,0-3.8,0.7-6.5,1.9c-0.6,0.3-1,0.5-1.3,0.7c-0.3,0.2-0.4,0.3-0.5,0.3c-0.2,0-0.3-0.1-0.5-0.4c-0.3-0.4-0.8-1.1-1.2-1.9
				C192.8,29.3,193.5,29.2,195.6,28.5z"/>
		</g>
		<g class="st23">
			<path class="st24" d="M215.8,26.5c0.1-0.5,0.2-1.3,0.2-2c0.9,0.2,1.5,0.3,2.2,0.6c0.2,0.1,0.3,0.2,0.3,0.4c0,0.1,0,0.2-0.1,0.3
				c-0.2,0.2-0.3,0.4-0.4,0.7c-0.2,0.7-0.4,1.4-0.7,2.2c0.5-0.1,1-0.1,1.4-0.1c1.7,0,2.6,1.2,2.6,3.4c0,2.1-0.4,4.5-1,5.8
				c-0.5,1.2-1.4,1.7-2.4,1.7c-0.9,0-1.4-0.1-1.8-0.2c-0.2-0.1-0.3-0.2-0.3-0.5c-0.1-0.6-0.1-1.1-0.3-1.7c0.8,0.3,1.4,0.4,2,0.4
				c0.6,0,0.9-0.2,1.2-1c0.4-1,0.7-2.7,0.7-4.5c0-1.3-0.2-1.7-1-1.7c-0.4,0-1,0.1-1.5,0.1c-1.2,3.5-2.2,6-3.6,8.5
				c-0.1,0.2-0.3,0.3-0.5,0.2c-0.3-0.2-1-0.6-1.3-0.8c-0.1-0.1-0.1-0.2-0.1-0.3c0-0.1,0-0.1,0.1-0.2c1.5-2.5,2.4-4.4,3.3-7.1
				c-0.7,0.1-1.3,0.2-1.8,0.3c-0.5,0.1-0.8,0.2-1,0.3c-0.3,0.1-0.5,0.1-0.6-0.2c-0.2-0.4-0.4-1.1-0.6-1.9c0.8,0,1.6-0.1,2.4-0.1
				c0.8-0.1,1.4-0.2,2.1-0.3C215.6,27.7,215.7,27.1,215.8,26.5z M223.2,27.7c0.1-0.1,0.2,0,0.3,0.1c1.2,1.2,2.3,2.7,3,4.4
				c0.1,0.2,0.1,0.3-0.1,0.4c-0.3,0.3-1,0.7-1.4,0.9c-0.2,0.1-0.4,0.1-0.4-0.1c-0.7-1.9-1.7-3.5-3-4.7
				C222.2,28.3,222.7,27.9,223.2,27.7z"/>
		</g>
		<g class="st23">
			<path class="st24" d="M231.3,24.9c0.2,0.1,0.3,0.2,0.3,0.4c0,0.1,0,0.2-0.1,0.3c-0.1,0.1-0.2,0.4-0.3,0.9
				c-0.3,1.2-0.4,2.5-0.5,3.5c0,0.7-0.1,1.3-0.1,2c0.4-0.7,0.8-1.4,1.3-2.3c0.2,0.5,0.3,0.9,0.6,1.2c0.1,0.1,0.1,0.2,0.1,0.3
				c0,0.1-0.1,0.3-0.2,0.5c-0.4,0.8-0.8,1.5-1.1,2.3c-0.1,0.2-0.1,0.3-0.1,0.5c0,0.2-0.1,0.3-0.2,0.3c-0.2,0.1-1,0.2-1.5,0.2
				c-0.1,0-0.2-0.1-0.3-0.2c-0.3-0.8-0.5-2.2-0.5-3.7c0-1.2,0.2-2.7,0.4-4.5c0.1-0.6,0.1-1.3,0.1-2.1
				C230.1,24.5,230.8,24.7,231.3,24.9z M237.2,24.6c0.4,0.1,0.4,0.2,0.4,0.5c0,0.3,0,0.6,0,0.8c0.1,1.7,0.3,3.4,0.3,4.7
				c0,2.6-0.4,4.8-1.4,6.3c-0.7,1.1-1.9,2.2-3,2.9c-0.1,0.1-0.3,0.1-0.4,0.1c-0.1,0-0.2-0.1-0.4-0.2c-0.4-0.3-1-0.7-1.5-0.8
				c1.5-0.8,2.4-1.5,3.1-2.4c1.1-1.4,1.5-2.9,1.5-5.8c0-1.3-0.1-3.2-0.2-4.3c-0.1-0.9-0.2-1.3-0.4-2
				C235.9,24.5,236.7,24.5,237.2,24.6z"/>
		</g>
		<g class="st23">
			<path class="st24" d="M248.3,32.7c-1.3,0-2.5,0-3.7-0.1c-0.2,0-0.3-0.1-0.3-0.3c-0.1-0.4-0.1-1.1-0.1-1.5
				c1.3,0.2,2.7,0.2,4.1,0.1c0-0.7,0-1.4,0-2.1c-1.7,0.1-3,0.1-4.3-0.1c-0.2,0-0.3-0.1-0.3-0.3c-0.1-0.5-0.1-0.9-0.1-1.6
				c1.6,0.2,3.2,0.2,4.8,0.2c0-0.7,0-1.1,0-1.8c0-0.4-0.1-0.7-0.2-1.2c1,0.1,1.7,0.2,2.3,0.3c0.2,0.1,0.3,0.3,0.2,0.5
				c-0.1,0.3-0.3,0.6-0.3,0.9c0,0.4,0,0.6,0,1.2c1.7-0.1,2.9-0.3,4-0.5c0.2-0.1,0.3,0,0.3,0.2c0.1,0.5,0.1,1,0.1,1.3
				c0,0.2-0.1,0.3-0.2,0.3c-1.3,0.2-2.4,0.4-4.2,0.5c0,0.7,0,1.4,0,2.1c1.4-0.1,2.2-0.3,3.6-0.5c0.2-0.1,0.3,0,0.3,0.1
				c0,0.3,0.1,0.9,0.1,1.5c0,0.2-0.1,0.2-0.3,0.3c-1.2,0.2-2,0.3-3.6,0.4c0,0.8,0.1,1.7,0.1,2.6c1.7,0.5,3.2,1.1,4.8,2.2
				c0.2,0.2,0.2,0.2,0.1,0.4c-0.1,0.3-0.5,1-0.8,1.3c-0.1,0.1-0.1,0.1-0.2,0.1c-0.1,0-0.1,0-0.2-0.1c-1.1-0.9-2.2-1.5-3.6-2.1
				c0,2-1.2,2.8-3.7,2.8c-2.4,0-3.7-1-3.7-2.5c0-1.5,1.4-2.6,3.6-2.6c0.5,0,0.9,0,1.7,0.1C248.4,34.1,248.4,33.4,248.3,32.7z
				 M246.8,36.4c-1.3,0-2,0.4-2,1c0,0.5,0.5,0.8,1.8,0.8c0.7,0,1.4-0.2,1.7-0.5c0.1-0.2,0.2-0.5,0.2-1
				C247.9,36.5,247.3,36.4,246.8,36.4z"/>
		</g>
		<g class="st23">
			<path class="st24" d="M263.8,27.7c0-0.9-0.1-1.2-0.3-1.9c0.9,0.1,1.7,0.2,2.2,0.3c0.2,0,0.4,0.2,0.4,0.4c0,0.1-0.1,0.3-0.1,0.4
				c-0.1,0.3-0.2,0.5-0.2,0.8c0,0.4,0,1.1,0,1.7c1.3-0.2,3.2-0.4,4.5-0.5c0-0.9,0-1.9,0-2.6c0-0.7-0.1-1.4-0.2-2.1
				c1.1,0.1,1.7,0.2,2.2,0.4c0.3,0.1,0.3,0.2,0.3,0.3c0,0.1-0.1,0.3-0.1,0.4c-0.1,0.3-0.2,0.5-0.2,0.8c0,1-0.1,1.7-0.1,2.5
				c1.5-0.1,2.6-0.2,3.5-0.2c0.1,0,0.2,0,0.2,0.2c0,0.5,0,1,0,1.5c0,0.2,0,0.3-0.2,0.3c-1.2,0-2.4,0.1-3.6,0.1
				c-0.1,1.2-0.1,2.1-0.2,2.8c-0.2,1.4-1,2-2.4,2c-0.3,0-0.7,0-1.1-0.1c-0.3,0-0.4-0.1-0.4-0.5c0-0.6-0.1-1.1-0.4-1.6
				c0.6,0.2,1.1,0.2,1.5,0.2c0.5,0,0.8-0.1,0.9-0.8c0.1-0.6,0.1-1.2,0.1-1.9c-1.5,0.1-3,0.3-4.4,0.5c0,2,0,3.1,0,4.1
				c0.1,1.5,0.5,1.8,2.7,1.8c1.6,0,3.4-0.2,4.7-0.4c0.3,0,0.3,0,0.4,0.2c0.1,0.4,0.1,1.2,0.1,1.5c0,0.2-0.1,0.3-0.2,0.3
				c-0.8,0.1-3.1,0.3-4.6,0.3c-3.7,0-4.7-0.8-5-3.1c-0.1-1-0.1-2.5-0.1-4.4c-0.9,0.1-1.5,0.2-2.2,0.4c-0.2,0.1-0.5,0.1-0.8,0.3
				c-0.2,0.1-0.4,0-0.5-0.2c-0.2-0.5-0.4-1.2-0.5-1.8c0.4,0,1.2-0.1,1.9-0.2c0.5-0.1,1.4-0.2,2-0.3V27.7z"/>
		</g>
		<g class="st23">
			<path class="st24" d="M281.8,32.8c0.7-0.6,1.5-0.9,2.2-0.9c2,0,2.4,1.7,2.6,3.4c0.1,1.3,0.4,1.9,1.1,1.9c0.7,0,1.2-0.3,1.7-0.9
				c0.6-0.7,1.4-1.7,1.8-3c0.4,0.8,0.7,1.2,1.1,1.5c0.1,0.1,0.2,0.3,0.2,0.4c0,0.1,0,0.2-0.1,0.3c-0.4,0.8-1,1.6-1.6,2.2
				c-0.9,1-2.1,1.5-3.3,1.5c-1.8,0-2.6-1-2.8-3.5c-0.2-1.8-0.6-2.3-1.2-2.3c-0.8,0-1.6,0.6-2.3,1.5c-0.7,0.9-1.4,2.4-2.1,4
				c-0.1,0.3-0.2,0.3-0.4,0.2c-0.5-0.2-1-0.5-1.4-0.8c-0.1-0.1-0.2-0.2-0.2-0.2c0-0.1,0-0.2,0.1-0.3c2.6-5.2,4.3-8.7,5.3-10.9
				c0.5-1.2,0.8-1.8,0.9-2.6c0.9,0.3,1.5,0.7,2,1c0.2,0.1,0.3,0.2,0.3,0.4c0,0.1-0.1,0.2-0.2,0.4c-0.2,0.2-0.4,0.5-0.6,0.8
				C283.7,29.2,282.7,31.1,281.8,32.8L281.8,32.8z"/>
		</g>
		<g class="st23">
			<path class="st24" d="M301.6,28c-2.2,0.4-4.2,0.8-6.1,1.2c-0.7,0.2-0.9,0.2-1.1,0.3c-0.1,0.1-0.3,0.1-0.4,0.1
				c-0.1,0-0.3-0.1-0.3-0.3c-0.2-0.5-0.4-1.1-0.7-2c0.9,0,1.5-0.1,2.9-0.3c2.2-0.3,6.2-0.9,10.9-1.5c0.3,0,0.4,0.1,0.4,0.2
				c0.1,0.4,0.2,1.1,0.2,1.6c0,0.2-0.1,0.3-0.3,0.3c-0.9,0.1-1.4,0.1-2.2,0.4c-3.1,1.1-4.6,3.2-4.6,5.4c0,2.3,1.7,3.6,4.8,3.8
				c0.3,0,0.4,0.1,0.4,0.3c0,0.5-0.1,1.1-0.2,1.6c-0.1,0.3-0.1,0.4-0.3,0.4c-3.2,0-6.7-1.8-6.7-5.6C298.1,31.2,299.4,29.5,301.6,28
				L301.6,28z M305.2,30c0.1-0.1,0.2-0.1,0.3,0c0.6,0.4,1.2,1.2,1.7,1.9c0.1,0.1,0.1,0.2-0.1,0.3l-0.8,0.6c-0.1,0.1-0.2,0.1-0.3-0.1
				c-0.5-0.8-1.1-1.5-1.8-2.1L305.2,30z M306.8,28.8c0.1-0.1,0.2-0.1,0.3,0c0.7,0.5,1.3,1.2,1.7,1.9c0.1,0.1,0.1,0.2-0.1,0.3
				l-0.7,0.6c-0.1,0.1-0.2,0.1-0.3-0.1c-0.5-0.8-1.1-1.5-1.8-2.1L306.8,28.8z"/>
		</g>
		<g class="st23">
			<path class="st24" d="M313.1,24.9c0.3,0.1,0.4,0.2,0.4,0.3c0,0.2-0.1,0.4-0.2,0.6c-0.1,0.3-0.2,0.8-0.3,2.2
				c-0.2,2.8-0.3,4.6-0.3,7c0,1.8,0.2,2.2,1.7,2.2c1.6,0,4.1-1,6.3-3.3c0.1,0.7,0.2,1.3,0.4,1.7c0.1,0.2,0.1,0.3,0.1,0.4
				c0,0.2-0.1,0.3-0.4,0.6c-2,1.8-4.5,2.7-6.9,2.7c-2.3,0-3.4-0.9-3.4-3.7c0-3,0.2-5.7,0.3-7.8c0-1.1,0.1-2.2-0.2-3.3
				C311.7,24.7,312.6,24.8,313.1,24.9z"/>
		</g>
		<g class="st23">
			<path class="st24" d="M334.8,26.9c0.2-0.1,0.3,0,0.3,0.2c0.1,0.4,0.1,0.9,0.1,1.3c0,0.2,0,0.3-0.3,0.3c-1.1,0.3-2,0.5-3.2,0.7
				c-1.2,4-2.2,6.8-3.3,9.8c-0.1,0.3-0.2,0.2-0.4,0.2c-0.2-0.1-1.1-0.5-1.5-0.7c-0.1-0.1-0.2-0.2-0.1-0.4c1.4-3.2,2.2-5.6,3.1-8.6
				c-1.1,0.1-2.3,0.2-3.2,0.2c-0.3,0-0.3-0.1-0.4-0.3c-0.1-0.4-0.2-1-0.3-1.7c0.4,0.1,0.6,0.1,1.3,0.1c0.9,0,1.9-0.1,2.9-0.2
				c0.2-0.7,0.3-1.5,0.5-2.3c0.1-0.5,0.1-1.1,0.1-1.7c1,0.1,1.7,0.3,2.3,0.5c0.1,0.1,0.2,0.2,0.2,0.3c0,0.1,0,0.2-0.1,0.3
				c-0.1,0.3-0.3,0.4-0.4,0.7c-0.2,0.7-0.3,1.3-0.4,1.7C332.9,27.4,333.9,27.2,334.8,26.9z M334.1,35.6c0.2,0,0.3,0.1,0.3,0.3
				c0.1,1.3,1,1.7,2.8,1.7c1,0,2.3-0.2,3-0.3c0.1,0,0.2,0,0.2,0.2c0.1,0.5,0.1,1.1,0.1,1.6c0,0.2,0,0.3-0.3,0.3
				c-0.6,0.1-1.8,0.2-2.5,0.2c-2.4,0-3.6-0.3-4.4-1.2c-0.6-0.6-0.8-1.4-0.8-2.5C333.1,35.7,333.8,35.6,334.1,35.6z M333.9,30.8
				c0-0.3,0.1-0.3,0.3-0.4c1.1-0.2,2.5-0.4,3.5-0.4c0.7,0,1.5,0.1,2.1,0.2c0.3,0,0.3,0.1,0.3,0.3c0,0.5,0,1,0,1.5
				c0,0.3-0.1,0.4-0.3,0.3c-0.6-0.1-1.5-0.2-2.2-0.2c-1.1,0-2.5,0.2-3.6,0.4C333.9,31.8,333.9,31.2,333.9,30.8z"/>
		</g>
		<g class="st23">
			<path class="st24" d="M348.7,38.1c0,1.5-1.2,2.6-2.6,2.6s-2.6-1.2-2.6-2.6s1.2-2.6,2.6-2.6S348.7,36.6,348.7,38.1z M344.5,38.1
				c0,0.9,0.7,1.5,1.5,1.5s1.5-0.7,1.5-1.5s-0.7-1.5-1.5-1.5S344.5,37.2,344.5,38.1z"/>
		</g>
		<g class="st23">
			<path class="st10" d="M41,152.1c0,1-0.3,1.8-1,2.4c-0.7,0.6-1.5,0.9-2.5,0.9h-2v4h-2.1v-10.5h4.1c1,0,1.8,0.3,2.5,0.9
				C40.7,150.3,41,151.1,41,152.1z M39,152.1c0-0.4-0.1-0.8-0.4-1.1c-0.3-0.3-0.6-0.4-1.1-0.4h-1.9v2.9h1.9c0.5,0,0.8-0.1,1.1-0.4
				S39,152.6,39,152.1z"/>
			<path class="st10" d="M50.9,159.4h-2.1l-0.6-1.9h-3.7l-0.6,1.9h-2.1l3.8-10.5H47L50.9,159.4z M47.6,155.8l-1.3-3.8l-1.3,3.8H47.6
				z"/>
			<path class="st10" d="M59.7,155c0,1.3-0.3,2.4-1,3.2c-0.7,0.8-1.7,1.2-3,1.2c-1.1,0-2.1-0.4-2.8-1.2c-0.5-0.5-0.8-1.1-0.9-1.8
				c-0.1-0.4-0.1-1.2-0.1-2.4c0-1.2,0-2,0.1-2.4c0.1-0.8,0.4-1.4,0.9-1.8c0.8-0.8,1.7-1.2,2.8-1.2c1.1,0,2,0.3,2.7,0.9
				c0.7,0.6,1.1,1.4,1.3,2.5h-2.1c-0.2-1-0.9-1.5-1.9-1.5c-1,0-1.6,0.7-1.8,2v1.5c0,0.8,0,1.3,0,1.6c0.1,1.3,0.7,2,1.8,2
				c0.6,0,1.1-0.2,1.4-0.5c0.3-0.4,0.5-0.8,0.5-1.5v-0.4h-1.9v-1.7h4V155z"/>
			<path class="st10" d="M68.7,159.4h-6.9v-10.5h6.9v1.8h-4.9v2.5H68v1.8h-4.2v2.6h4.9V159.4z"/>
			<path class="st10" d="M82.2,159.4h-1.8l-4.2-6.5v6.5h-2.1v-10.5H76l4.2,6.5v-6.5h2.1V159.4z"/>
			<path class="st10" d="M92.1,154.1c0,1.1,0,1.9-0.1,2.4c-0.1,0.7-0.4,1.3-0.9,1.8c-0.8,0.8-1.7,1.2-2.8,1.2
				c-1.1,0-2.1-0.4-2.9-1.2c-0.5-0.5-0.8-1.1-0.9-1.8c-0.1-0.4-0.1-1.2-0.1-2.4c0-1.2,0-2,0.1-2.4c0.1-0.8,0.4-1.4,0.9-1.8
				c0.8-0.8,1.7-1.2,2.9-1.2s2.1,0.4,2.8,1.2c0.5,0.5,0.8,1.1,0.9,1.8C92.1,152.2,92.1,153,92.1,154.1z M90.1,154.1v-0.8
				c0-0.3,0-0.6,0-0.8c-0.1-1.3-0.7-2-1.8-2c-1.1,0-1.7,0.7-1.8,2v1.5c0,0.7,0,1.2,0,1.5c0.1,1.3,0.7,2,1.8,2c0.6,0,1.1-0.2,1.4-0.7
				C89.9,156.6,90.1,155.6,90.1,154.1z"/>
			<path class="st10" d="M101,150.7h-2.8v8.7h-2.1v-8.7h-2.8v-1.8h7.6V150.7z"/>
			<path class="st10" d="M113.1,150.7h-4.9v2.6h4.2v1.8h-4.2v4.3h-2.1v-10.5h6.9V150.7z"/>
			<path class="st10" d="M122.3,154.1c0,1.1,0,1.9-0.1,2.4c-0.1,0.7-0.4,1.3-0.9,1.8c-0.8,0.8-1.7,1.2-2.8,1.2
				c-1.1,0-2.1-0.4-2.9-1.2c-0.5-0.5-0.8-1.1-0.9-1.8c-0.1-0.4-0.1-1.2-0.1-2.4c0-1.2,0-2,0.1-2.4c0.1-0.8,0.4-1.4,0.9-1.8
				c0.8-0.8,1.7-1.2,2.9-1.2s2.1,0.4,2.8,1.2c0.5,0.5,0.8,1.1,0.9,1.8C122.2,152.2,122.3,153,122.3,154.1z M120.2,154.1v-0.8
				c0-0.3,0-0.6,0-0.8c-0.1-1.3-0.7-2-1.8-2c-1.1,0-1.7,0.7-1.8,2v1.5c0,0.7,0,1.2,0,1.5c0.1,1.3,0.7,2,1.8,2c0.6,0,1.1-0.2,1.4-0.7
				C120.1,156.6,120.2,155.6,120.2,154.1z"/>
			<path class="st10" d="M132,155.8c0,1.1-0.4,2-1.1,2.7c-0.7,0.7-1.7,1-2.8,1c-1.1,0-2-0.3-2.8-1c-0.8-0.7-1.1-1.6-1.1-2.7v-6.9
				h2.1v6.9c0,0.6,0.2,1.1,0.5,1.4c0.3,0.4,0.8,0.5,1.3,0.5c0.6,0,1-0.2,1.4-0.5c0.3-0.4,0.5-0.8,0.5-1.4v-6.9h2V155.8z"/>
			<path class="st10" d="M142.3,159.4h-1.8l-4.2-6.5v6.5h-2.1v-10.5h1.8l4.2,6.5v-6.5h2.1V159.4z"/>
			<path class="st10" d="M152.4,154.1c0,1.2,0,1.9-0.1,2.3c-0.1,1-0.6,1.7-1.2,2.2s-1.5,0.8-2.5,0.8h-3.8v-10.5h3.8
				c1,0,1.8,0.3,2.5,0.8c0.7,0.5,1.1,1.2,1.3,2.2C152.4,152.2,152.4,152.9,152.4,154.1z M150.4,154.1v-0.9c0-0.4,0-0.7-0.1-0.9
				c-0.1-0.4-0.2-0.7-0.4-0.9c-0.4-0.4-0.9-0.7-1.5-0.7h-1.6v6.9h1.6c0.7,0,1.2-0.2,1.5-0.7c0.2-0.3,0.4-0.7,0.4-1.4
				C150.4,155.3,150.4,154.8,150.4,154.1z"/>
		</g>
	</g>
</g>
</svg>
