<svg xmlns="http://www.w3.org/2000/svg" xmlns:xlink="http://www.w3.org/1999/xlink" width="40" height="45.184" viewBox="0 0 40 45.184">
  <defs>
    <clipPath id="clip-path">
      <rect id="長方形_16080" data-name="長方形 16080" width="40" height="45.184" fill="none"/>
    </clipPath>
  </defs>
  <g id="icon_solution" clip-path="url(#clip-path)">
    <path id="パス_136489" data-name="パス 136489" d="M40,24.517a20,20,0,1,1-20-20,20,20,0,0,1,20,20" transform="translate(0 -0.072)" fill="#86d7f5"/>
    <path id="パス_136490" data-name="パス 136490" d="M19.955,16.695,16.734,14.28a2.41,2.41,0,0,0-3.076.152L8.681,18.994A2.406,2.406,0,0,0,7.9,20.77v5.569a4.832,4.832,0,0,0,4.822,4.822H23.054a1.824,1.824,0,1,0,0-3.617h-.688" transform="translate(1.624 2.835)" fill="none" stroke="#fff" stroke-linecap="round" stroke-linejoin="round" stroke-width="1.5"/>
    <path id="パス_136491" data-name="パス 136491" d="M20.928,27.051h2.066a1.824,1.824,0,1,0,0-3.617h.948a1.824,1.824,0,1,0,0-3.617h4.823a1.808,1.808,0,1,0,0-3.617H14.9" transform="translate(3.062 3.329)" fill="none" stroke="#fff" stroke-linecap="round" stroke-linejoin="round" stroke-width="1.5"/>
    <text id="決" transform="translate(18.198 10.893) rotate(4.661)" font-size="12" font-family="YuGo-Bold, YuGothic" font-weight="700"><tspan x="0" y="0">決</tspan></text>
    <text id="_" data-name="!" transform="matrix(0.857, 0.515, -0.515, 0.857, 31.47, 11.47)" font-size="12" font-family="YuGo-Bold, YuGothic" font-weight="700"><tspan x="0" y="0">!</tspan></text>
    <text id="解" transform="translate(6.153 12.935) rotate(-9.191)" font-size="12" font-family="YuGo-Bold, YuGothic" font-weight="700"><tspan x="0" y="0">解</tspan></text>
  </g>
</svg>
