<?xml version="1.0" encoding="UTF-8"?><svg id="_レイヤー_1" xmlns="http://www.w3.org/2000/svg" viewBox="0 0 205.06 54.01"><defs><style>.cls-1{letter-spacing:.05em;}.cls-2{letter-spacing:.05em;}.cls-3{letter-spacing:.06em;}.cls-4{fill:#00afd5;}.cls-5{fill:#fff;}.cls-6{fill:#070102;}.cls-7{fill:#19a4c7;}.cls-8{fill:#57c3ea;}.cls-9{fill:#59b9dd;}.cls-10{letter-spacing:.04em;}.cls-11{letter-spacing:.04em;}.cls-12{fill:#66657c;font-family:DINbekBold, 'DINbek Bold';font-size:10px;}.cls-13{letter-spacing:.06em;}.cls-14{letter-spacing:.06em;}.cls-15{letter-spacing:.06em;}</style></defs><g id="design"><path class="cls-9" d="M26.72,53.81c-.23,.06-.47,.1-.7,.13,.23-.02,.46-.08,.7-.13Z"/><path class="cls-9" d="M3.14,42.53c-.13-.1-.24-.2-.36-.3,.11,.1,.23,.2,.36,.3Z"/><path class="cls-9" d="M2.74,42.2c-.13-.11-.24-.23-.36-.34,.12,.11,.24,.23,.36,.34Z"/><path class="cls-9" d="M2.38,41.85c-.5-.51-.93-1.09-1.29-1.71,.35,.63,.78,1.2,1.29,1.71Z"/><path class="cls-9" d="M27.58,53.56c-.23,.07-.46,.14-.69,.2,.23-.05,.46-.12,.69-.2Z"/><path class="cls-9" d="M22.54,53.65c-.14-.04-.27-.09-.42-.13,.15,.04,.29,.09,.42,.13Z"/><path class="cls-9" d="M21.93,53.43c-.13-.06-.27-.12-.4-.17,.14,.06,.27,.12,.4,.17Z"/><path class="cls-9" d="M3.58,42.85c-.13-.08-.26-.17-.37-.27,.12,.09,.24,.19,.37,.27Z"/><path class="cls-9" d="M23.33,53.85c-.2-.04-.4-.09-.6-.14,.2,.04,.4,.1,.6,.14Z"/><path class="cls-9" d="M21.35,53.17c-.19-.09-.38-.19-.56-.3,.18,.11,.37,.21,.56,.3Z"/><path class="cls-9" d="M26,53.93c-.36,.05-.72,.07-1.08,.07,.36,0,.72-.02,1.08-.07Z"/><path class="cls-8" d="M45.91,11.32L29.22,1.2c-2.63-1.59-5.93-1.59-8.56,0L3.98,11.32C1.51,12.81,0,15.48,0,18.37v17.69c0,1.44,.38,2.85,1.09,4.09l23.85-14.46,8.05,4.89c.37-.73,.93-1.35,1.63-1.79l4.8-3.06c.99-.63,2.31-.34,2.94,.65,.22,.34,.33,.74,.33,1.14v8.95l6.09,3.69c-.44,.77-1.01,1.47-1.67,2.07,1.76-1.57,2.76-3.81,2.76-6.16V18.37c-.01-2.88-1.52-5.55-3.98-7.05Z"/><path class="cls-9" d="M3.65,42.89c.15,.1,.31,.2,.47,.29l16.69,9.69L4.12,43.18c-.16-.08-.32-.18-.47-.29Z"/><path class="cls-9" d="M42.69,44.98h0l3.07-1.78c.16-.09,.32-.19,.47-.29-.15,.1-.31,.2-.47,.29l-3.07,1.78Z"/><path class="cls-9" d="M28.26,53.3c-.23,.1-.44,.19-.67,.27,.23-.09,.46-.19,.67-.27Z"/><path class="cls-9" d="M47.1,42.23c-.12,.1-.24,.2-.36,.3,.12-.1,.24-.2,.36-.3Z"/><path class="cls-9" d="M29.08,52.89c-.22,.13-.43,.23-.65,.35,.22-.12,.45-.23,.65-.35Z"/><path class="cls-9" d="M46.68,42.58c-.13,.1-.26,.2-.4,.29,.13-.1,.27-.19,.4-.29Z"/><path class="cls-7" d="M23.33,53.85c.35,.07,.71,.12,1.06,.14-.36-.03-.71-.07-1.06-.14Z"/><path class="cls-7" d="M47.11,42.2s-.01,.01-.03,.01c.01,0,.03,0,.03-.01Z"/><path class="cls-7" d="M22.73,53.71c-.06-.01-.13-.04-.19-.06,.06,.01,.13,.03,.19,.06Z"/><path class="cls-7" d="M26.89,53.76l-.17,.04,.17-.04Z"/><path class="cls-7" d="M46.74,42.53s-.04,.03-.06,.04c.02-.02,.04-.03,.06-.04Z"/><path class="cls-7" d="M28.43,53.22c-.06,.03-.11,.05-.17,.07,.06-.02,.12-.04,.17-.07Z"/><path class="cls-7" d="M46.28,42.86s-.03,.03-.04,.03c.01-.01,.03-.01,.04-.03Z"/><polygon class="cls-7" points="29.08 52.89 32.48 50.91 32.48 50.91 29.08 52.89"/><path class="cls-7" d="M2.77,42.23l-.03-.03s.03,.01,.03,.03Z"/><path class="cls-7" d="M22.14,53.5c-.07-.03-.14-.04-.2-.07,.06,.03,.13,.06,.2,.07Z"/><path class="cls-7" d="M3.65,42.89s-.04-.03-.06-.04c.02,.02,.04,.03,.06,.04Z"/><path class="cls-7" d="M21.52,53.26l-.17-.09,.17,.09Z"/><path class="cls-7" d="M3.2,42.58s-.04-.03-.06-.04c.02,.02,.04,.03,.06,.04Z"/><path class="cls-4" d="M32.48,32.63c0-.72,.18-1.43,.5-2.07l-8.06-4.89L1.08,40.14h0c.36,.62,.79,1.19,1.29,1.71h0c.12,.12,.24,.23,.36,.35l.03,.03c.12,.1,.24,.2,.36,.3,.01,.01,.04,.03,.06,.04,.13,.1,.24,.19,.37,.27,.02,.01,.04,.03,.06,.04,.15,.1,.31,.2,.47,.29l16.69,9.69,.56,.3,.17,.09c.13,.06,.27,.12,.4,.17,.06,.03,.13,.05,.2,.07,.14,.04,.27,.1,.42,.13,.06,.01,.13,.04,.19,.06,.2,.06,.4,.1,.6,.14,.35,.07,.71,.12,1.06,.14,.17,.01,.36,.01,.53,.01,.36,0,.72-.03,1.08-.07,.24-.03,.47-.07,.7-.13l.17-.04c.23-.05,.46-.12,.69-.2,.23-.08,.46-.17,.67-.27,.06-.03,.12-.04,.17-.07,.22-.1,.44-.22,.66-.34l3.4-1.98v-18.23h.03Z"/><path class="cls-4" d="M48.79,40.15l-6.09-3.69v8.53l3.07-1.78c.16-.08,.32-.19,.47-.29,0-.01,.03-.02,.04-.03,.13-.09,.27-.19,.4-.29,.01-.01,.04-.03,.06-.04,.13-.1,.24-.2,.36-.3,.01,0,.01-.01,.03-.01,.64-.62,1.2-1.33,1.65-2.1Z"/><polygon class="cls-5" points="38.48 47.42 32.48 50.91 32.48 51.05 42.69 45.15 42.69 44.97 39.16 47.03 38.48 47.42"/><polygon class="cls-5" points="39.16 47.03 42.69 44.97 42.69 44.97 39.16 47.03"/><path class="cls-5" d="M42.69,27.5c0-1.18-.96-2.13-2.14-2.12-.4,0-.8,.12-1.14,.33l-4.81,3.06c-.69,.44-1.25,1.06-1.63,1.79l9.71,5.89v-8.94h0Z"/><polygon class="cls-5" points="39.16 47.03 32.48 50.91 32.48 50.91 38.48 47.42 39.16 47.03"/><path class="cls-8" d="M32.48,50.91l6.68-3.88,3.53-2.05v-8.53l-9.71-5.89c-.33,.64-.5,1.35-.5,2.07v18.28Z"/><path class="cls-6" d="M199.92,20.26c-.14-1.28-.38-2.55-.73-3.79l1.91-.58c.39,1.36,.66,2.76,.8,4.17l-1.99,.21Z"/><path class="cls-6" d="M203.07,20.8c-.14-1.3-.34-2.58-.62-3.86l1.95-.46c.3,1.35,.52,2.72,.66,4.1l-1.99,.21Z"/><path class="cls-6" d="M81.94,13.45c.87-1.22,1.34-2.68,1.33-4.17v-3.41h-13.15v3.02h10.13v.38c0,2.3-1.87,4.16-4.17,4.16h-8.86v3.02h8.07v9.15c0,1.74-1.41,3.15-3.15,3.15v3.02c3.41,0,6.17-2.77,6.17-6.17v-9.15h5.06v.5c0,1.86-1.51,3.37-3.37,3.37v3.03c3.54,0,6.4-2.87,6.4-6.4v-3.51h-4.46Z"/><path class="cls-6" d="M108.45,9.3c.29-1.13,.45-2.29,.48-3.45h-3.03s-.06,4.53-3.06,8.38l2.38,1.86c.89-1.15,1.64-2.41,2.21-3.75h2.68v14.41c0,.89-.72,1.61-1.61,1.61h-2.77v3.03h2.78c2.56,0,4.63-2.08,4.64-4.64V9.3h-4.7Z"/><polygon class="cls-6" points="91.43 29 94.53 29 95.69 23.48 92.6 23.48 91.43 29"/><polygon class="cls-6" points="100.69 23.48 101.86 29 104.95 29 103.78 23.48 100.69 23.48"/><polygon class="cls-6" points="107.22 18.14 104.13 18.14 105.29 23.65 108.38 23.65 107.22 18.14"/><polygon class="cls-6" points="103.07 16.49 100.04 16.49 100.04 18.1 97.82 18.1 102.86 10.19 99.28 10.19 97.74 12.6 96.77 11.9 100.5 6.03 96.92 6.03 92.7 12.68 96.11 15.16 92.3 21.13 96.64 21.13 96.64 31.36 99.67 31.36 99.67 21.13 103.07 21.13 103.07 16.49"/><path class="cls-6" d="M128.04,29.22V7.63h3.02V25.92c2.48-.64,4.52-2.42,5.49-4.79l2.78,1.19c-2.87,6.71-9.48,6.87-9.76,6.88l-1.53,.02Z"/><path class="cls-6" d="M122.01,7.63c.18,4.98-.22,16.66-4.06,20.5l2.14,2.14c2.49-2.49,4.07-7.24,4.69-14.11,.25-2.84,.33-5.69,.25-8.53h-3.02Z"/><path class="cls-6" d="M183.5,29.58h4.07c2.29-2.62,4.43-5.36,6.41-8.22,2.59,2.21,4.59,5.04,5.82,8.22h3.21c-1.36-4.22-3.91-7.95-7.34-10.75,3.38-5.29,4.77-8.84,4.87-9.09l.79-2.05h-16.02v3.02h11.48c-1.67,3.41-5.72,10.69-13.28,18.88Z"/><path class="cls-6" d="M176.47,19.47h-3.18c.47,1.41,1.26,3.95,1.86,6.37h-11.57l7.11-18.22h-3.25l-8.29,21.24h16.63c.1,.58,.15,1.16,.16,1.75h3.02c0-3.01-1.68-8.61-2.5-11.15Z"/><rect class="cls-6" x="142.35" y="17.09" width="15.3" height="3.02"/></g><g><g><path class="cls-6" d="M159.91,48.56h-1.14v-7.12h3.14c1.07,0,1.93,.86,1.93,1.93v.59c0,1.07-.86,1.93-1.93,1.93h-2v2.68Zm0-3.82h2c.43,0,.78-.35,.78-.78v-.6c0-.43-.35-.78-.78-.78h-2v2.15Z"/><path class="cls-6" d="M146.92,48.73c-1.41,.01-2.56-1.12-2.57-2.53,0,0,0,0,0-.01v-2.39c0-1.41,1.15-2.56,2.56-2.56s2.56,1.15,2.56,2.56h-1.14c0-.78-.63-1.41-1.42-1.41-.78,0-1.41,.63-1.41,1.41v2.39c0,.78,.63,1.41,1.42,1.41,.78,0,1.41-.63,1.41-1.41h1.14c0,1.41-1.14,2.54-2.55,2.55Z"/><path class="cls-6" d="M177.8,48.73c-1.36,0-2.46-1.1-2.47-2.46v-2.56c0-1.36,1.1-2.46,2.46-2.46s2.46,1.1,2.46,2.46v2.56c0,1.36-1.1,2.46-2.46,2.46Zm0-6.33c-.73,0-1.31,.59-1.32,1.32v2.56c0,.73,.59,1.32,1.32,1.32s1.32-.59,1.32-1.32v-2.56c0-.73-.59-1.31-1.32-1.32Z"/><polygon class="cls-6" points="142.59 42.57 142.59 41.43 137.61 41.43 137.61 48.56 142.59 48.56 142.59 47.41 138.75 47.41 138.75 45.46 141.52 45.46 141.52 44.32 138.75 44.32 138.75 42.57 142.59 42.57"/><polygon class="cls-6" points="156.65 42.57 156.65 41.43 151.67 41.43 151.67 48.56 156.65 48.56 156.65 47.41 152.81 47.41 152.81 45.46 155.59 45.46 155.59 44.32 152.81 44.32 152.81 42.57 156.65 42.57"/><polygon class="cls-6" points="170.09 41.43 165.04 41.43 165.04 42.57 166.99 42.57 166.99 48.56 168.13 48.56 168.13 42.57 170.09 42.57 170.09 41.43"/><polygon class="cls-6" points="204.45 41.43 199.4 41.43 199.4 42.57 201.35 42.57 201.35 48.56 202.5 48.56 202.5 42.57 204.45 42.57 204.45 41.43"/><polygon class="cls-6" points="183.6 48.56 182.46 48.56 182.46 41.43 183.54 41.43 186.25 46.11 186.25 41.43 187.39 41.43 187.39 48.56 186.31 48.56 183.6 43.82 183.6 48.56"/><rect class="cls-6" x="172.05" y="41.43" width="1.14" height="7.13"/><rect class="cls-6" x="189.84" y="41.43" width="1.14" height="7.13"/><path class="cls-6" d="M135.21,43.36c0-1.06-.86-1.93-1.93-1.93h-3.15v7.12h1.14v-2.68h2c.43,0,.78,.35,.78,.78v1.89h1.14v-1.88c0-.51-.2-1-.56-1.36,.36-.36,.56-.85,.56-1.36v-.59Zm-3.93,1.38v-2.16h2c.43,0,.78,.35,.78,.78v.59c0,.43-.35,.78-.78,.78l-2,.02Z"/><path class="cls-6" d="M195.75,44.37c-1.53-.26-1.56-.74-1.56-.98-.01-.26,.09-.52,.29-.7,.29-.26,.76-.36,1.33-.29,.57,.05,1.08,.37,1.39,.85l.91-.7c-.49-.72-1.28-1.19-2.14-1.28-1.17-.16-1.87,.23-2.25,.57-.45,.41-.69,1-.66,1.6,.07,1.63,1.9,1.95,2.51,2.05,1.02,.18,1.58,.61,1.53,1.19-.02,.23-.08,.92-1.38,.86-.76-.01-1.47-.37-1.93-.97l-.87,.74c.68,.83,1.68,1.33,2.76,1.35h.19c1.39,0,2.27-.7,2.38-1.9,.08-.94-.52-2.07-2.48-2.41Z"/></g><text class="cls-12" transform="translate(67.3 48.53)"><tspan class="cls-11" x="0" y="0">P</tspan><tspan class="cls-15" x="6.65" y="0">ow</tspan><tspan class="cls-14" x="20.81" y="0">e</tspan><tspan class="cls-10" x="26.85" y="0">r</tspan><tspan class="cls-3" x="31.8" y="0">e</tspan><tspan class="cls-2" x="37.89" y="0">d </tspan><tspan class="cls-13" x="46.82" y="0">b</tspan><tspan class="cls-1" x="53.02" y="0">y</tspan></text></g></svg>