<?xml version="1.0" encoding="UTF-8"?><svg xmlns="http://www.w3.org/2000/svg" viewBox="0 0 70 70"><defs><style>.d{fill:#00afd5;}.e,.f{fill:#fff;}.g{fill:#19a4c7;}.h{fill:#57c3ea;}.i{fill:#59b9dd;}.f{stroke:#00afd5;stroke-linejoin:round;stroke-width:3px;}.j{fill:none;stroke:#fff;stroke-linecap:round;stroke-miterlimit:10;stroke-width:1.91px;}</style></defs><g id="a"/><g id="b"/><g id="c"><rect class="h" x="0" y=".09" width="40.95" height="69.91" rx="4.54" ry="4.54"/><rect class="e" x="3.52" y="6.85" width="33.91" height="59.72" rx="2.62" ry="2.62"/><line class="j" x1="16.43" y1="3.7" x2="24.9" y2="3.7"/><rect class="h" x="6.17" y="9.38" width="7.87" height="7.87" rx="1.38" ry="1.38"/><rect class="h" x="16.58" y="9.38" width="7.87" height="7.87" rx="1.38" ry="1.38"/><rect class="h" x="27" y="9.38" width="7.87" height="7.87" rx="1.38" ry="1.38"/><rect class="h" x="6.17" y="19.62" width="7.87" height="7.87" rx="1.38" ry="1.38"/><rect class="h" x="16.58" y="19.62" width="7.87" height="7.87" rx="1.38" ry="1.38"/><rect class="h" x="27" y="19.62" width="7.87" height="7.87" rx="1.38" ry="1.38"/><rect class="h" x="6.17" y="29.87" width="7.87" height="7.87" rx="1.38" ry="1.38"/><rect class="h" x="16.58" y="29.87" width="7.87" height="7.87" rx="1.38" ry="1.38"/><rect class="h" x="6.17" y="40.11" width="7.87" height="7.87" rx="1.38" ry="1.38"/><rect class="h" x="16.58" y="40.11" width="7.87" height="7.87" rx="1.38" ry="1.38"/><path class="f" d="M48.93,14.46c-9.89,0-18.04,7.34-19.35,16.87l-6.84,2.69,6.84,2.69c1.31,9.52,9.46,16.87,19.35,16.87,10.8,0,19.55-8.75,19.55-19.55s-8.75-19.55-19.55-19.55Z"/><g><path class="i" d="M40.42,40.61c-.05-.04-.1-.08-.14-.12,.05,.04,.09,.08,.14,.12Z"/><path class="i" d="M40.27,40.48c-.05-.05-.1-.09-.14-.14,.05,.05,.1,.09,.14,.14Z"/><path class="i" d="M40.12,40.34c-.2-.2-.37-.43-.51-.67,.14,.25,.31,.48,.51,.67Z"/><path class="i" d="M40.6,40.73c-.05-.03-.1-.07-.15-.11,.05,.04,.1,.07,.15,.11Z"/><path class="h" d="M57.3,28.29l-6.59-4c-1.04-.63-2.34-.63-3.38,0l-6.59,4c-.97,.59-1.57,1.64-1.57,2.78v6.98c0,.57,.15,1.12,.43,1.62l9.41-5.71,3.18,1.93c.15-.29,.37-.53,.64-.71l1.9-1.21c.39-.25,.91-.13,1.16,.26,.09,.13,.13,.29,.13,.45v3.53l2.4,1.46c-.18,.3-.4,.58-.66,.82,.69-.62,1.09-1.5,1.09-2.43v-6.98c0-1.14-.6-2.19-1.57-2.78Z"/><path class="i" d="M40.62,40.75c.06,.04,.12,.08,.19,.11l6.59,3.83-6.59-3.83c-.06-.03-.13-.07-.19-.11Z"/><path class="i" d="M56.04,41.57h0l1.21-.7c.06-.03,.12-.07,.19-.11-.06,.04-.12,.08-.19,.11l-1.21,.7Z"/><path class="i" d="M57.78,40.49s-.1,.08-.14,.12c.05-.04,.1-.08,.14-.12Z"/><path class="i" d="M57.61,40.62c-.05,.04-.1,.08-.16,.11,.05-.04,.11-.07,.16-.11Z"/><path class="g" d="M57.78,40.48s0,0-.01,0c0,0,.01,0,.01,0Z"/><path class="g" d="M57.63,40.61s-.02,.01-.02,.02c0,0,.01-.01,.02-.02Z"/><path class="g" d="M57.45,40.74s-.01,.01-.02,.01c0,0,.01,0,.02-.01Z"/><polygon class="g" points="50.66 44.69 52 43.91 52 43.91 50.66 44.69"/><path class="g" d="M40.28,40.49h-.01s.01,0,.01,0Z"/><path class="g" d="M40.62,40.75s-.02-.01-.02-.02c0,0,.01,.01,.02,.02Z"/><path class="g" d="M40.45,40.62s-.02-.01-.02-.02c0,0,.01,.01,.02,.02Z"/><path class="d" d="M52,36.7c0-.28,.07-.56,.2-.82l-3.18-1.93-9.41,5.71h0c.14,.24,.31,.47,.51,.67h0s.1,.09,.14,.14h.01c.05,.05,.1,.09,.14,.13,0,0,.02,.01,.02,.02,.05,.04,.1,.07,.15,.11,0,0,.02,.01,.02,.02,.06,.04,.12,.08,.19,.11l6.59,3.83,.22,.12,.07,.03c.05,.02,.11,.05,.16,.07,.03,.01,.05,.02,.08,.03,.06,.02,.11,.04,.16,.05,.02,0,.05,.02,.07,.02,.08,.02,.16,.04,.24,.06,.14,.03,.28,.05,.42,.06,.07,0,.14,0,.21,0,.14,0,.28-.01,.43-.03,.09-.01,.19-.03,.28-.05l.07-.02c.09-.02,.18-.05,.27-.08,.09-.03,.18-.07,.27-.11,.02-.01,.05-.02,.07-.03,.08-.04,.18-.08,.26-.14l1.34-.78v-7.2h.01Z"/><path class="d" d="M58.44,39.67l-2.4-1.46v3.37l1.21-.7c.06-.03,.12-.07,.19-.11,0,0,0,0,.02-.01,.05-.03,.11-.07,.16-.11,0,0,.02-.01,.02-.02,.05-.04,.1-.08,.14-.12,0,0,0,0,.01,0,.25-.25,.47-.52,.65-.83Z"/><polygon class="e" points="54.37 42.53 52 43.91 52 43.97 56.04 41.64 56.04 41.57 54.64 42.38 54.37 42.53"/><polygon class="e" points="54.64 42.38 56.04 41.57 56.04 41.57 54.64 42.38"/><path class="e" d="M56.04,34.67c0-.46-.38-.84-.84-.84-.16,0-.31,.05-.45,.13l-1.9,1.21c-.27,.17-.5,.42-.64,.71l3.83,2.32v-3.53h0Z"/><polygon class="e" points="54.64 42.38 52 43.91 52 43.91 54.37 42.53 54.64 42.38"/><path class="h" d="M52,43.91l2.64-1.53,1.39-.81v-3.37l-3.83-2.32c-.13,.25-.2,.53-.2,.82v7.22Z"/></g></g></svg>