<?xml version="1.0" encoding="UTF-8"?><svg xmlns="http://www.w3.org/2000/svg" viewBox="0 0 70 70"><defs><style>.d{stroke:#b4ecfe;stroke-linecap:round;stroke-linejoin:round;stroke-width:1.06px;}.d,.e{fill:none;}.e{stroke:#57c3ea;stroke-miterlimit:10;stroke-width:3.88px;}.f{fill:#00afd5;}.g{fill:#b4ecfe;}</style></defs><g id="a"/><g id="b"/><g id="c"><path class="e" d="M16.19,42.33v-4.49c0-2.24,1.81-4.05,4.05-4.05h29.53c2.24,0,4.05,1.81,4.05,4.05v4.49"/><line class="e" x1="35" y1="33.79" x2="35" y2="25.22"/><g><rect class="g" x="27.09" y=".04" width="15.72" height="24.07" rx="1.09" ry="1.09"/><g><path class="f" d="M28.34,.05l12.12,3.64c.47,.14,.78,.57,.78,1.05V26.57c0,.74-.71,1.27-1.42,1.05l-12.12-3.64c-.47-.14-.78-.57-.78-1.05V1.1c0-.74,.71-1.27,1.42-1.05Z"/><line class="d" x1="37.38" y1="15" x2="39.66" y2="15.72"/></g></g><g><rect class="g" x="8.34" y="42.37" width="15.72" height="24.07" rx="1.09" ry="1.09"/><g><path class="f" d="M9.59,42.38l12.12,3.64c.47,.14,.78,.57,.78,1.05v21.83c0,.74-.71,1.27-1.42,1.05l-12.12-3.64c-.47-.14-.78-.57-.78-1.05v-21.83c0-.74,.71-1.27,1.42-1.05Z"/><line class="d" x1="18.63" y1="57.33" x2="20.91" y2="58.05"/></g></g><g><rect class="g" x="46.01" y="42.37" width="15.72" height="24.07" rx="1.09" ry="1.09"/><g><path class="f" d="M47.26,42.38l12.12,3.64c.47,.14,.78,.57,.78,1.05v21.83c0,.74-.71,1.27-1.42,1.05l-12.12-3.64c-.47-.14-.78-.57-.78-1.05v-21.83c0-.74,.71-1.27,1.42-1.05Z"/><line class="d" x1="56.31" y1="57.33" x2="58.58" y2="58.05"/></g></g></g></svg>