<?xml version="1.0" encoding="UTF-8"?><svg xmlns="http://www.w3.org/2000/svg" viewBox="0 0 70 70"><defs><style>.d{fill:#00afd5;}.e{fill:#00abdc;}.f{fill:#fff;}.g{fill:#b4ecfe;}.h{fill:none;stroke:#b4ecfe;stroke-linecap:round;stroke-linejoin:round;stroke-width:2.67px;}</style></defs><g id="a"/><g id="b"/><g id="c"><g><rect class="g" x="30.23" y=".09" width="39.77" height="60.89" rx="2.75" ry="2.75"/><g><path class="d" d="M33.41,.12l30.66,9.2c1.18,.35,1.98,1.44,1.98,2.67v55.23c0,1.86-1.8,3.2-3.58,2.67l-30.66-9.2c-1.18-.35-1.98-1.44-1.98-2.67V2.78c0-1.86,1.8-3.2,3.58-2.67Z"/><line class="h" x1="56.29" y1="37.94" x2="62.04" y2="39.77"/></g></g><rect class="f" x="-.02" y="12.55" width="42.46" height="42.46"/><g><rect class="e" x="3.64" y="16.22" width="7.02" height="7.02"/><rect class="e" x="10.66" y="16.22" width="7.02" height="7.02"/><rect class="e" x="24.71" y="16.22" width="7.02" height="7.02"/><rect class="e" x="31.74" y="16.22" width="7.02" height="7.02"/><rect class="e" x="3.65" y="23.24" width="7.02" height="7.02"/><rect class="e" x="17.7" y="23.24" width="7.02" height="7.02"/><rect class="e" x="10.67" y="23.24" width="7.02" height="7.02"/><rect class="e" x="31.74" y="23.24" width="7.02" height="7.02"/><rect class="e" x="3.65" y="30.26" width="7.02" height="7.02"/><rect class="e" x="17.7" y="30.26" width="7.02" height="7.02"/><rect class="e" x="24.73" y="30.26" width="7.02" height="7.02"/><rect class="e" x="10.68" y="37.29" width="7.02" height="7.02"/><rect class="e" x="24.73" y="37.29" width="7.02" height="7.02"/><rect class="e" x="31.76" y="37.29" width="7.02" height="7.02"/><rect class="e" x="31.76" y="44.31" width="7.02" height="7.02"/><rect class="e" x="3.67" y="44.31" width="7.02" height="7.02"/><rect class="e" x="17.72" y="44.31" width="7.02" height="7.02"/><rect class="e" x="24.74" y="44.31" width="7.02" height="7.02"/><rect class="f" x="28.19" y="40.76" width="7.74" height="7.74"/><rect class="f" x="6.63" y="19.12" width="7.67" height="7.67"/></g></g></svg>