<?xml version="1.0" encoding="UTF-8"?><svg xmlns="http://www.w3.org/2000/svg" viewBox="0 0 70 70"><defs><style>.d{fill:#00afd5;}.e{fill:#fff;}.f{fill:#33bbe3;}</style></defs><g id="a"/><g id="b"/><g id="c"><g><path class="f" d="M35.57,42.07l26.05-23.19c-.34-.07-.69-.11-1.06-.11H5.09c-.36,0-.72,.04-1.06,.11l26.05,23.19c1.56,1.39,3.92,1.39,5.49,0Z"/><path class="d" d="M38.07,44.89c-1.5,1.33-3.37,2-5.25,2s-3.75-.67-5.25-2L.85,21.11c-.49,.77-.77,1.68-.77,2.66v29.4c0,2.76,2.24,5,5,5H60.56c2.76,0,5-2.24,5-5V23.77c0-.98-.29-1.89-.77-2.66l-26.71,23.78Z"/></g><g><circle class="e" cx="57.62" cy="20.49" r="11.58"/><path class="d" d="M57.62,10.06c5.76,0,10.43,4.67,10.43,10.43s-4.67,10.43-10.43,10.43-10.43-4.67-10.43-10.43,4.67-10.43,10.43-10.43m0-2.3c-7.02,0-12.73,5.71-12.73,12.73s5.71,12.73,12.73,12.73,12.73-5.71,12.73-12.73-5.71-12.73-12.73-12.73h0Z"/></g><g><path class="d" d="M57.65,14.33h0c2.31,0,4.18,1.87,4.18,4.18v2.46h-8.36v-2.46c0-2.31,1.87-4.18,4.18-4.18Z"/><path class="d" d="M61.83,20.3h-8.36c0,1.04-.55,1.96-1.37,2.48-.42,.27-.66,.75-.66,1.25v.04c0,.8,.65,1.44,1.44,1.44h9.53c.8,0,1.44-.65,1.44-1.44v-.04c0-.5-.24-.98-.66-1.25-.82-.52-1.36-1.43-1.37-2.48Z"/><path class="d" d="M57.65,13.09h0c.54,0,.98,.44,.98,.98v1.47h-1.97v-1.47c0-.54,.44-.98,.98-.98Z"/></g></g></svg>