<?xml version="1.0" encoding="UTF-8"?><svg xmlns="http://www.w3.org/2000/svg" viewBox="0 0 70 70"><defs><style>.d{fill:#00afd5;}.e{fill:#fff;}.f{fill:#57c3ea;}</style></defs><g id="a"/><g id="b"/><g id="c"><rect class="d" y="23.46" width="70" height="22.63" rx="4.68" ry="4.68"/><rect class="e" x="2.56" y="26.15" width="64.88" height="17.26" rx="2.54" ry="2.54"/><circle class="f" cx="10.94" cy="35.16" r="2.02"/><circle class="f" cx="19.69" cy="35.16" r="2.02"/><circle class="f" cx="28.43" cy="35.16" r="2.02"/><path class="f" d="M51.41,26.15h13.49c1.4,0,2.54,1.14,2.54,2.54v12.17c0,1.4-1.14,2.55-2.55,2.55h-13.49V26.15h0Z"/><path class="e" d="M64.89,40.06l-1.84-2.6c.74-.8,1.24-1.84,1.32-3.01,.19-2.74-1.88-5.12-4.62-5.31-.12,0-.24-.01-.35-.01-2.59,0-4.78,2.01-4.96,4.63-.19,2.74,1.88,5.12,4.62,5.31,.12,0,.24,.01,.35,.01,.69,0,1.35-.15,1.95-.41l1.83,2.59c.18,.25,.53,.32,.79,.14l.78-.55c.25-.18,.31-.53,.14-.79Zm-4.91-3.04c-.19,.04-.38,.06-.57,.06-.07,0-.14,0-.21,0-.03,0-.05-.01-.08-.01-.17-.02-.34-.04-.51-.09-.04-.01-.08-.03-.11-.04-.15-.05-.3-.1-.43-.17-.01,0-.03-.02-.04-.03-.32-.17-.62-.39-.86-.68-.24-.28-.42-.59-.54-.93,0-.02-.02-.04-.03-.06-.05-.15-.08-.3-.11-.46,0-.04-.02-.08-.03-.11-.03-.2-.03-.4-.02-.6h0c.11-1.55,1.41-2.77,2.96-2.77h0c.05,0,.11,0,.16,0,.02,0,.03,0,.05,0,1.64,.11,2.88,1.54,2.76,3.18-.01,.19-.05,.38-.1,.57-.14,.52-.42,.98-.79,1.34-.02,.02-.03,.04-.05,.06-.05,.05-.11,.08-.17,.13-.09,.07-.17,.15-.27,.21-.03,.02-.06,.03-.09,.05-.13,.08-.26,.15-.4,.21-.1,.04-.22,.07-.33,.1-.07,.02-.14,.05-.21,.06Z"/></g></svg>