<svg xmlns="http://www.w3.org/2000/svg" xmlns:xlink="http://www.w3.org/1999/xlink" width="35.397" height="39.984" viewBox="0 0 35.397 39.984">
  <defs>
    <clipPath id="clip-path">
      <rect id="長方形_16080" data-name="長方形 16080" width="35.397" height="39.984" fill="none"/>
    </clipPath>
  </defs>
  <g id="icon_solution" clip-path="url(#clip-path)">
    <path id="パス_136489" data-name="パス 136489" d="M35.4,22.215a17.7,17.7,0,1,1-17.7-17.7,17.7,17.7,0,0,1,17.7,17.7" transform="translate(0 -0.584)" fill="#ffd583"/>
    <path id="パス_136490" data-name="パス 136490" d="M18.568,16.361l-2.85-2.137a2.132,2.132,0,0,0-2.722.134L8.591,18.4A2.129,2.129,0,0,0,7.9,19.967V24.9a4.276,4.276,0,0,0,4.267,4.267H21.31a1.614,1.614,0,1,0,0-3.2H20.7" transform="translate(0.528 0.921)" fill="none" stroke="#fff" stroke-linecap="round" stroke-linejoin="round" stroke-width="1.5"/>
    <path id="パス_136491" data-name="パス 136491" d="M20.234,25.8h1.828a1.614,1.614,0,1,0,0-3.2H22.9a1.614,1.614,0,1,0,0-3.2h4.268a1.6,1.6,0,1,0,0-3.2H14.9" transform="translate(0.995 1.081)" fill="none" stroke="#fff" stroke-linecap="round" stroke-linejoin="round" stroke-width="1.5"/>
    <text id="決" transform="translate(16.163 8.908) rotate(4.661)" font-size="10" font-family="YuGo-Bold, YuGothic" font-weight="700"><tspan x="0" y="0">決</tspan></text>
    <text id="_" data-name="!" transform="matrix(0.857, 0.515, -0.515, 0.857, 28.742, 8.664)" font-size="9" font-family="YuGo-Bold, YuGothic" font-weight="700"><tspan x="0" y="0">!</tspan></text>
    <text id="解" transform="translate(5.327 10.722) rotate(-9.191)" font-size="10" font-family="YuGo-Bold, YuGothic" font-weight="700"><tspan x="0" y="0">解</tspan></text>
  </g>
</svg>
