<?xml version="1.0" encoding="UTF-8"?><svg xmlns="http://www.w3.org/2000/svg" viewBox="0 0 70 70"><defs><style>.d{fill:#00afd5;}.e{fill:#fff;}.f{stroke:#00afd5;stroke-miterlimit:10;stroke-width:4.92px;}.f,.g{fill:none;stroke-linecap:round;}.g{stroke:#57c3ea;stroke-linejoin:round;stroke-width:7px;}</style></defs><g id="a"/><g id="b"/><g id="c"><g><path class="d" d="M70,35.25C70,15.92,54.33,.25,35,.25c-1.11,0-2.21,.06-3.29,.16l.03,7.05c1.07-.12,2.15-.2,3.26-.2,15.43,0,27.99,12.55,27.99,27.99s-12.55,27.99-27.99,27.99S7.01,50.68,7.01,35.25c0-8.06,3.43-15.32,8.89-20.43l-4.97-4.97C4.2,16.23,0,25.25,0,35.25c0,19.33,15.67,35,35,35s35-15.67,35-35Z"/><polyline class="f" points="5.85 10.92 15.13 10.92 15.13 20.2"/><path class="e" d="M44.09,1.22c-1.93-.62-3.91-.78-5.95-.97l-.31,7.71c2.05,.23,2.83,.09,4.74,.88l1.52-7.63Z"/><path class="e" d="M57.88,6.33c-1.71-1.09-5.09-2.39-7.01-3.08l-3.13,7.67c1.93,.74,2.32,1.65,3.97,2.89l6.17-7.48Z"/><polyline class="g" points="50.91 25.79 32.46 44.64 31.69 44.64 21.68 33.8"/></g></g></svg>