<?xml version="1.0" encoding="UTF-8"?><svg xmlns="http://www.w3.org/2000/svg" viewBox="0 0 70 70"><defs><style>.d{stroke:#00afd5;stroke-width:3.6px;}.d,.e{fill:none;stroke-miterlimit:10;}.f{fill:#00afd5;}.g{fill:#fff;}.h{fill:#19a4c7;}.i{fill:#57c3ea;}.j{fill:#59b9dd;}.e{stroke:#57c3ea;stroke-width:7px;}</style></defs><g id="a"/><g id="b"/><g id="c"><path class="d" d="M38.61,48.42v-3.39c0-3.41,2.77-6.18,6.18-6.18h17.36c3.41,0,6.18,2.77,6.18,6.18v17.36c0,3.41-2.77,6.18-6.18,6.18h-17.36c-3.41,0-6.18-2.77-6.18-6.18v-3.42"/><g><path class="j" d="M1.92,26.51c-.08-.06-.15-.12-.22-.19,.07,.06,.14,.12,.22,.19Z"/><path class="j" d="M1.67,26.3c-.08-.07-.15-.14-.22-.21,.07,.07,.15,.14,.22,.21Z"/><path class="j" d="M1.45,26.08c-.31-.32-.58-.67-.8-1.06,.21,.39,.48,.74,.8,1.06Z"/><path class="j" d="M2.19,26.7c-.08-.05-.16-.11-.23-.17,.07,.06,.15,.11,.23,.17Z"/><path class="i" d="M28.38,7.19L18.05,.93C16.43-.05,14.39-.05,12.76,.93L2.44,7.19C.91,8.12-.02,9.77-.02,11.56v10.95c0,.89,.23,1.76,.68,2.53l14.76-8.95,4.98,3.02c.23-.45,.58-.84,1.01-1.11l2.97-1.89c.61-.39,1.43-.21,1.82,.4,.13,.21,.21,.46,.21,.71v5.53l3.77,2.28c-.28,.48-.62,.91-1.03,1.28,1.09-.97,1.71-2.36,1.71-3.81V11.56c0-1.78-.94-3.43-2.46-4.36Z"/><path class="j" d="M2.23,26.73c.09,.06,.19,.12,.29,.18l10.32,6L2.53,26.91c-.1-.05-.2-.11-.29-.18Z"/><path class="j" d="M26.39,28.02h0l1.9-1.1c.1-.05,.2-.12,.29-.18-.09,.06-.19,.12-.29,.18l-1.9,1.1Z"/><path class="j" d="M29.12,26.32c-.07,.06-.15,.12-.22,.19,.07-.06,.15-.12,.22-.19Z"/><path class="j" d="M28.86,26.54c-.08,.06-.16,.12-.25,.18,.08-.06,.17-.12,.25-.18Z"/><path class="h" d="M29.12,26.3s0,0-.02,0c0,0,.02,0,.02,0Z"/><path class="h" d="M28.89,26.51s-.03,.02-.04,.03c.01-.01,.02-.02,.04-.03Z"/><path class="h" d="M28.61,26.71s-.02,.02-.03,.02c0,0,.02,0,.03-.02Z"/><polygon class="h" points="17.97 32.91 20.07 31.69 20.07 31.69 17.97 32.91"/><path class="h" d="M1.69,26.32l-.02-.02s.02,0,.02,.02Z"/><path class="h" d="M2.23,26.73s-.03-.02-.04-.03c.01,.01,.02,.02,.04,.03Z"/><path class="h" d="M1.96,26.54s-.03-.02-.04-.03c.01,.01,.02,.02,.04,.03Z"/><path class="f" d="M20.07,20.38c0-.45,.11-.88,.31-1.28l-4.98-3.02L.64,25.02H.64c.22,.38,.49,.74,.8,1.06h0c.07,.07,.15,.14,.22,.21l.02,.02c.07,.06,.15,.12,.22,.19,0,0,.03,.02,.04,.03,.08,.06,.15,.11,.23,.17,.01,0,.03,.02,.04,.03,.09,.06,.19,.12,.29,.18l10.32,6,.35,.19,.11,.05c.08,.04,.17,.07,.25,.11,.04,.02,.08,.03,.12,.04,.09,.03,.17,.06,.26,.08,.04,0,.08,.03,.12,.04,.12,.04,.25,.06,.37,.09,.22,.04,.44,.07,.66,.09,.11,0,.22,0,.33,0,.22,0,.45-.02,.67-.04,.15-.02,.29-.04,.44-.08l.11-.03c.14-.03,.29-.07,.43-.12,.14-.05,.28-.1,.42-.17,.04-.02,.07-.03,.11-.04,.13-.06,.28-.13,.41-.21l2.1-1.23v-11.28h.02Z"/><path class="f" d="M30.16,25.03l-3.77-2.28v5.28l1.9-1.1c.1-.05,.2-.11,.29-.18,0,0,.02-.02,.03-.02,.08-.05,.17-.12,.25-.18,0,0,.03-.02,.04-.03,.08-.06,.15-.12,.22-.19,0,0,0,0,.02,0,.4-.39,.74-.82,1.02-1.3Z"/><polygon class="g" points="23.78 29.53 20.07 31.69 20.07 31.78 26.39 28.13 26.39 28.02 24.2 29.29 23.78 29.53"/><polygon class="g" points="24.2 29.29 26.39 28.02 26.39 28.02 24.2 29.29"/><path class="g" d="M26.39,17.21c0-.73-.59-1.32-1.32-1.31-.25,0-.49,.07-.7,.21l-2.98,1.89c-.43,.27-.78,.66-1.01,1.11l6.01,3.64v-5.53h0Z"/><polygon class="g" points="24.2 29.29 20.07 31.69 20.07 31.69 23.78 29.53 24.2 29.29"/><path class="i" d="M20.07,31.69l4.13-2.4,2.19-1.27v-5.28l-6.01-3.64c-.2,.4-.31,.84-.31,1.28v11.31Z"/></g><path class="e" d="M44.34,53.7H24.43c-3.77,0-6.82-3.06-6.82-6.82v-5.14"/><polygon class="i" points="17.61 36.79 10.24 44.92 24.98 44.92 17.61 36.79"/><path class="e" d="M35.2,16.17h12.64c3.6,0,6.52,2.92,6.52,6.52v7.93"/><polygon class="i" points="54.36 35.06 61.73 26.94 46.99 26.94 54.36 35.06"/></g></svg>